<?xml version="1.0" encoding="utf-8"?>
<!-- Generator: Adobe Illustrator 16.0.0, SVG Export Plug-In . SVG Version: 6.00 Build 0)  -->
<!DOCTYPE svg PUBLIC "-//W3C//DTD SVG 1.1//EN" "http://www.w3.org/Graphics/SVG/1.1/DTD/svg11.dtd">
<svg version="1.1" id="Layer_1" xmlns="http://www.w3.org/2000/svg" xmlns:xlink="http://www.w3.org/1999/xlink" x="0px" y="0px"
	 width="50px" height="39.965px" viewBox="0 0 50 39.965" enable-background="new 0 0 50 39.965" xml:space="preserve">
<g>
	<g>
		<path fill="#177EA4" d="M50,32.641c0,0-0.095-3.854-0.242-9.813c-0.072-2.98-0.157-6.487-0.25-10.302
			c-0.049-1.916-0.1-3.91-0.151-5.953c-0.068-1.27-0.468-2.526-1.18-3.6c-0.754-1.035-1.745-1.913-2.94-2.42
			c-0.287-0.144-0.611-0.203-0.917-0.302l-0.466-0.129c-0.157-0.029-0.319-0.035-0.479-0.052c-0.316-0.026-0.649-0.057-0.952-0.068
			l-0.796,0.018l-3.187,0.072c-2.124,0.047-4.243,0.094-6.33,0.14c-4.176,0.087-8.222,0.172-11.922,0.25
			c-3.7,0.066-7.053,0.126-9.841,0.176c-1.394,0.019-2.646,0.035-3.73,0.049C5.459,0.768,4.465,1.017,3.794,1.412
			c-0.171,0.094-0.354,0.193-0.55,0.299C3.056,1.83,2.883,1.994,2.687,2.147C2.271,2.433,1.948,2.889,1.557,3.346
			c-0.147,0.262-0.3,0.536-0.459,0.819C0.918,4.44,0.869,4.785,0.745,5.11C0.611,5.438,0.584,5.798,0.543,6.169
			C0.524,6.353,0.504,6.54,0.484,6.73C0.482,6.905,0.479,7.083,0.477,7.263c-0.05,2.881-0.11,6.368-0.176,10.228
			c-0.077,3.86-0.162,8.093-0.25,12.468c-0.011,0.547-0.022,1.096-0.034,1.646L0,32.436l0.077,0.977
			c0.197,1.285,0.723,2.57,1.646,3.543c0.911,0.971,2.101,1.686,3.418,2.01c1.433,0.244,2.443,0.176,3.565,0.221
			c17.707,0.404,33.974,0.777,33.974,0.777c1.655,0,2.998-0.9,2.998-2.01s-1.343-2.01-2.998-2.01c0,0-14.747,0.154-31.019,0.324
			c-1.017,0.01-2.04,0.02-3.066,0.029c-0.987,0.008-2.194,0.045-2.782-0.043c-1.42-0.252-2.699-1.346-3.077-2.754l-0.09-0.258
			c-0.017-0.088-0.017-0.182-0.028-0.27c-0.018-0.182-0.041-0.359-0.068-0.541c-0.005-0.5-0.01-1-0.015-1.498
			c-0.009-0.994-0.018-1.98-0.027-2.953c-0.017-1.943-0.033-3.835-0.048-5.646c-0.028-3.622-0.053-6.927-0.074-9.707
			c-0.008-1.39-0.014-2.649-0.021-3.751C2.365,8.326,2.363,7.814,2.361,7.345c0-0.231,0.001-0.453,0.002-0.663
			c0.018-0.16,0.035-0.312,0.051-0.454c0.023-0.576,0.292-1.284,0.789-1.991c0.5-0.707,1.363-1.356,2.462-1.575
			C5.943,2.633,6.229,2.617,6.52,2.578C6.911,2.58,7.31,2.582,7.719,2.584C8.537,2.59,9.39,2.596,10.273,2.602
			c1.767,0.013,3.658,0.027,5.642,0.042c7.938,0.067,17.379,0.146,26.438,0.223c0.857,0.047,1.568,0.252,2.234,0.678
			c0.622,0.464,1.094,1.085,1.382,1.772c0.047,0.181,0.099,0.358,0.157,0.534c0.064,0.175,0.033,0.369,0.063,0.549l0.031,0.274
			c0.01,0.101,0,0.259,0.002,0.386l-0.008,0.801c-0.01,1.063-0.02,2.11-0.028,3.136c-0.039,4.104-0.074,7.877-0.104,11.084
			c-0.063,6.413-0.102,10.562-0.102,10.562c0,1.658,0.899,2.998,2.009,2.998C49.101,35.639,50,34.299,50,32.641z"/>
	</g>
	<g>
		<path fill="#177EA4" d="M40.571,9.228c0,0-0.334,0.653-1.04,1.765c-0.705,1.109-1.793,2.672-3.27,4.429
			c-1.482,1.744-3.343,3.713-5.638,5.438c-1.145,0.86-2.404,1.655-3.775,2.204c-0.686,0.265-1.398,0.466-2.114,0.533
			c-0.715,0.076-1.416-0.037-2.13-0.259c-1.419-0.463-2.687-1.256-3.82-2.07c-1.131-0.831-2.133-1.717-3.033-2.589
			c-1.797-1.75-3.186-3.441-4.254-4.871c-1.068-1.433-1.813-2.611-2.29-3.423C8.733,9.572,8.515,9.129,8.515,9.129
			c-1.006-1.408-2.259-2.216-3.1-1.834c-0.849,0.384-0.751,2.209,0.359,3.759c0,0,0.255,0.267,0.757,0.792
			c0.498,0.524,1.238,1.298,2.225,2.293c0.99,0.993,2.219,2.216,3.734,3.611c1.517,1.393,3.3,2.982,5.533,4.563
			c1.421,0.963,2.944,1.926,4.791,2.412c0.92,0.253,1.975,0.273,2.893,0.097c0.936-0.166,1.81-0.47,2.637-0.823
			c3.293-1.466,5.925-3.616,8.135-5.541c2.194-1.952,3.907-3.789,5.077-5.144c1.171-1.353,1.801-2.224,1.801-2.224
			c0.534-0.797,0.828-1.667,0.857-2.378C44.247,7.997,44,7.46,43.576,7.295C42.707,6.986,41.539,7.815,40.571,9.228z"/>
	</g>
</g>
</svg>
