<?xml version="1.0" encoding="utf-8"?>
<!-- Generator: Adobe Illustrator 16.0.0, SVG Export Plug-In . SVG Version: 6.00 Build 0)  -->
<!DOCTYPE svg PUBLIC "-//W3C//DTD SVG 1.1//EN" "http://www.w3.org/Graphics/SVG/1.1/DTD/svg11.dtd">
<svg version="1.1" id="Layer_1" xmlns="http://www.w3.org/2000/svg" xmlns:xlink="http://www.w3.org/1999/xlink" x="0px" y="0px"
	 width="50px" height="39.965px" viewBox="0 0 50 39.965" enable-background="new 0 0 50 39.965" xml:space="preserve">
<g>
	<g>
		<g>
			<path fill="#177EA4" d="M36.296,13.593c0,0-0.013,0.166-0.006,0.507c0,0.335,0.018,0.849,0.14,1.566
				c0.069,0.363,0.166,0.782,0.373,1.275c0.194,0.48,0.553,1.077,1.127,1.586c1.152,0.916,2.344,1.137,3.53,1.255
				c1.203,0.099,2.445,0.032,3.817-0.252c0.344-0.074,0.693-0.158,1.064-0.282c0.378-0.121,0.73-0.254,1.221-0.521
				c0.498-0.279,0.961-0.769,1.233-1.202c0.289-0.441,0.447-0.861,0.598-1.28c0.521-1.653,0.585-3.225,0.606-4.873
				c-0.004-1.648-0.109-3.313-0.328-5.104c0.002,0.027,0.003,0.056,0.008,0.139c-0.066-1.346-0.588-2.649-1.433-3.72
				c-0.83-1.083-2.019-1.948-3.402-2.396c-0.682-0.215-1.47-0.289-2.137-0.263L40.85,0.099c-1.236,0.043-2.468,0.085-3.666,0.127
				c-4.792,0.157-9.051,0.264-11.04,0.264c-1.785,0-5.522-0.085-10.155-0.217c-2.316-0.07-4.856-0.146-7.489-0.226
				C8.171,0.036,7.84,0.025,7.509,0.015L7.006,0L6.41,0.018C5.614,0.084,4.833,0.313,4.122,0.67C2.701,1.39,1.548,2.577,0.865,4.044
				c-0.339,0.729-0.553,1.562-0.573,2.4C0.27,7.107,0.247,7.767,0.224,8.419c-0.046,1.305-0.091,2.583-0.135,3.818
				c-0.022,0.617-0.044,1.224-0.066,1.818l-0.016,0.443c-0.005,0.146-0.015,0.262,0.002,0.556c0.01,0.251,0.021,0.5,0.031,0.749
				l0.019,0.373C0.1,16.287,0.125,16.4,0.178,16.51c0.405,0.896,1.303,1.396,2.209,1.707c0.719,0.237,1.253,0.335,1.832,0.428
				c2.239,0.309,4.084,0.19,5.639-0.211c0.391-0.106,0.754-0.235,1.123-0.411c0.421-0.204,0.809-0.474,1.081-0.73
				c0.573-0.518,0.739-1.041,0.857-1.242c0.206-0.783,0.272-1.138,0.288-1.49c0.033-0.354,0.054-0.657,0.045-0.889
				c0.004-0.488-0.006-0.815-0.024-1.029c-0.026-0.438-0.029-0.48-0.029-0.48c-0.106-1.213-1.177-2.001-2.263-1.783
				c-1.084,0.217-1.813,1.17-1.731,2.13c0,0,0.002,0.035,0.027,0.378c0.018,0.176,0.025,0.417,0.025,0.755
				c0.01,0.181-0.008,0.351-0.024,0.545c0.005,0.201-0.075,0.452-0.038,0.355c0.004,0.002,0.01,0.006,0.013,0.015
				c0.001,0.004,0.001,0.01,0,0.016c-0.003,0.007-0.187,0.103-0.346,0.16c-0.709,0.273-2.098,0.509-3.665,0.438
				c-0.391-0.016-0.791-0.056-1.175-0.119c-0.186-0.03-0.39-0.075-0.532-0.111c-0.049-0.008-0.053-0.007-0.083-0.016
				c-0.052-0.01-0.099-0.053-0.095-0.112l-0.006-0.049l-0.007-0.412c-0.005-0.275-0.009-0.554-0.014-0.835
				C3.249,11.273,3.21,8.865,3.171,6.412c-0.02-0.755,0.32-1.646,0.889-2.363C4.63,3.328,5.422,2.8,6.236,2.582
				c0.419-0.103,0.756-0.119,1.432-0.124c0.595-0.008,1.185-0.016,1.765-0.024c1.162-0.016,2.291-0.03,3.373-0.044
				c4.327-0.04,7.898-0.072,9.779-0.09c2.237,0.021,7.243,0.069,12.792,0.122c1.388,0.02,2.809,0.039,4.229,0.058
				c0.71,0.011,1.419,0.021,2.125,0.031c0.353,0.005,0.704,0.011,1.054,0.016c0.3,0.017,0.489,0.028,0.732,0.084
				c0.92,0.197,1.767,0.802,2.333,1.543c0.571,0.747,0.826,1.604,0.81,2.251l-0.002,0.053l0.012,0.134
				c0.143,1.668,0.185,3.353,0.116,4.85c-0.065,1.484-0.264,2.934-0.643,3.807c-0.087,0.211-0.19,0.375-0.24,0.417
				c-0.049,0.031,0.013,0.008-0.131,0.069c-0.332,0.143-0.871,0.267-1.355,0.333c-0.997,0.141-1.962,0.127-2.711,0.009
				c-0.366-0.063-0.703-0.14-0.913-0.239c-0.131-0.04-0.175-0.094-0.26-0.125c-0.023-0.041-0.077-0.051-0.056-0.062
				c-0.008,0.029-0.153-0.316-0.178-0.645c-0.031-0.34-0.033-0.641-0.021-0.848c0.004-0.203,0.02-0.315,0.02-0.315
				c0.052-0.869-0.643-1.8-1.713-2.078C37.514,11.486,36.383,12.279,36.296,13.593z"/>
		</g>
		<g>
			<path fill="#177EA4" d="M37.681,8.167c0,0-0.113-0.027-0.326-0.078c-0.212-0.055-0.521-0.13-0.905-0.188
				c-0.773-0.15-1.858-0.312-3.136-0.442c-2.561-0.256-5.888-0.395-9.236-0.438c-3.346-0.056-6.132-0.071-8.149-0.018
				c-0.507,0.012-0.96,0.022-1.355,0.031c-0.4,0.023-0.74,0.042-1.017,0.058c-0.563,0.015-0.866,0.023-0.866,0.023
				c-1,0.369-1.442,1.498-0.99,2.509c0.451,1.01,1.453,1.598,2.232,1.303c0,0,0.138-0.113,0.43-0.307
				c0.295-0.182,0.725-0.494,1.36-0.768c1.247-0.588,3.268-1.21,5.998-1.319c3.428-0.16,7.226,0.513,9.974,1.376
				c1.37,0.446,2.503,0.897,3.232,1.288c0.371,0.187,0.667,0.332,0.841,0.454c0.182,0.115,0.28,0.177,0.28,0.177
				c0.394,0.156,0.785,0.121,1.194-0.059c0.412-0.186,0.845-0.517,1.146-0.979c0.303-0.463,0.4-0.984,0.271-1.475
				C38.531,8.817,38.172,8.365,37.681,8.167z"/>
		</g>
	</g>
	<g>
		<path fill="#177EA4" d="M3.556,22.521c0,0-0.265,0.719-0.733,1.99c-0.445,1.287-1.096,3.117-1.661,5.501
			c-0.142,0.596-0.266,1.236-0.368,1.927c-0.036,0.363-0.101,0.694-0.108,1.101c-0.006,0.197-0.012,0.397-0.018,0.6
			c-0.006,0.198,0.028,0.481,0.05,0.72c0.138,1.008,0.662,1.998,1.366,2.707c0.708,0.717,1.559,1.178,2.419,1.487
			c0.865,0.308,1.757,0.458,2.649,0.494l0.669,0.005l0.583-0.017c0.389-0.012,0.781-0.023,1.175-0.035
			c1.577-0.048,3.191-0.097,4.824-0.146c6.53-0.182,13.338-0.373,19.073-0.533c2.866-0.066,5.464-0.126,7.625-0.176
			c0.539-0.011,1.044-0.014,1.573-0.052c0.512-0.06,0.989-0.139,1.419-0.272c0.863-0.249,1.544-0.61,2.039-0.955
			c0.486-0.346,1.123-0.849,1.584-1.728c0.225-0.432,0.381-0.995,0.36-1.572c-0.018-0.558-0.12-1.102-0.25-1.665
			c-0.548-2.242-1.528-4.793-2.9-7.52c-0.35-0.68-0.728-1.367-1.171-2.057c-0.219-0.344-0.461-0.688-0.74-1.032
			c-0.125-0.157-0.319-0.374-0.528-0.562c-0.211-0.181-0.435-0.356-0.698-0.459c-0.264-0.101-0.551-0.097-0.836-0.111l-0.658-0.021
			c-0.409-0.011-0.823-0.021-1.238-0.033c-0.403-0.016-0.861-0.01-1.226-0.045l-0.482-0.066c-0.162-0.017-0.291-0.107-0.439-0.148
			c-0.555-0.233-0.994-0.689-1.227-1.245c-0.228-0.16-0.066-1.369-0.237-2.308c-0.146-0.973-0.493-2.066-1.331-2.941
			c-0.192-0.23-0.444-0.398-0.687-0.575c-0.253-0.195-0.466-0.254-0.703-0.385c-0.468-0.255-0.919-0.379-1.377-0.541
			c-1.818-0.556-3.574-0.735-5.291-0.868c-1.713-0.115-3.387-0.141-5.039-0.017c-0.827,0.064-1.646,0.165-2.475,0.345
			c-0.828,0.192-1.667,0.417-2.563,1.001c-0.219,0.135-0.446,0.329-0.662,0.537c-0.199,0.202-0.328,0.401-0.487,0.607
			c-0.333,0.399-0.5,0.851-0.694,1.289c-0.294,0.847-0.399,1.642-0.486,2.184c-0.179,1.178-0.404,1.522-0.738,1.75
			c-0.293,0.216-0.798,0.334-1.342,0.362c-0.533,0.033-1.032,0.007-1.377-0.01c-0.354-0.021-0.542-0.032-0.542-0.032
			c-0.626-0.02-1.25,0.18-1.709,0.548c-0.457,0.365-0.709,0.883-0.676,1.434c0.105,1.1,0.96,1.966,2.26,2.025
			c0,0,0.186,0.003,0.539,0.008c0.355,0.002,0.9,0.008,1.665-0.058c0.754-0.094,1.818-0.177,3.057-0.946
			c0.608-0.373,1.193-0.944,1.586-1.625c0.189-0.343,0.417-0.712,0.507-1.072c0.124-0.369,0.233-0.748,0.274-1.071
			c0.027-0.168,0.056-0.337,0.084-0.509c0.017-0.147,0.034-0.296,0.051-0.447c0.032-0.261,0.065-0.527,0.099-0.798
			c0.043-0.223,0.08-0.421,0.134-0.596c0.075-0.136,0.094-0.32,0.205-0.418c0.043-0.06,0.081-0.124,0.116-0.193
			c0.045-0.021,0.023-0.044,0.098-0.086c0.09-0.079,0.274-0.183,0.487-0.276c0.432-0.192,1.007-0.353,1.621-0.473
			c2.486-0.459,5.59-0.508,8.496-0.192c0.722,0.092,1.44,0.21,2.087,0.39c0.315,0.096,0.654,0.179,0.896,0.31
			c0.12,0.059,0.297,0.114,0.373,0.17c0.066,0.063,0.162,0.084,0.221,0.158c0.27,0.232,0.504,0.661,0.643,1.238
			c0.071,0.284,0.109,0.603,0.145,0.925l0.022,0.502l0.003,0.063l0.011,0.181l0.002,0.019l0.005,0.036l0.019,0.146
			c0.014,0.099,0.015,0.169,0.069,0.383c0.086,0.358,0.209,0.736,0.338,0.956c0.124,0.26,0.26,0.511,0.438,0.734
			c0.166,0.231,0.336,0.458,0.557,0.645c0.215,0.189,0.407,0.402,0.661,0.539c0.245,0.145,0.486,0.306,0.742,0.416
			c0.261,0.094,0.525,0.182,0.789,0.262c0.265,0.095,0.521,0.081,0.783,0.119c0.238,0.02,0.568,0.058,0.723,0.045
			c0.753-0.008,1.496-0.017,2.227-0.025c0.221-0.002,0.439-0.005,0.656-0.008c0.097,0.018,0.168,0.086,0.239,0.152
			c0.33,0.348,0.726,0.895,1.053,1.403c0.338,0.522,0.649,1.06,0.938,1.589c0.58,1.061,1.074,2.094,1.488,3.047
			c0.829,1.901,1.348,3.524,1.502,4.499c0.04,0.233,0.073,0.523,0.049,0.677c-0.015,0.162-0.061,0.362-0.203,0.594
			c-0.268,0.458-0.859,1.011-1.7,1.356c-0.416,0.178-0.886,0.312-1.39,0.384c-0.254,0.032-0.513,0.052-0.779,0.053
			c-0.324-0.003-0.655-0.004-0.992-0.007c-1.369-0.012-2.834-0.026-4.372-0.04c-6.15-0.066-13.466-0.146-20.486-0.223
			c-1.755-0.021-3.491-0.041-5.187-0.061c-0.848-0.01-1.685-0.02-2.509-0.029c-0.896-0.003-1.448-0.018-2.07-0.152
			c-0.595-0.129-1.124-0.347-1.52-0.61c-0.404-0.263-0.616-0.567-0.734-0.829c-0.207-0.329,0.014-1.747,0.294-2.8
			c0.583-2.226,1.334-4.103,1.84-5.385c0.52-1.287,0.839-2.007,0.839-2.007c0.484-1.152,0.084-2.438-0.918-2.904
			C5.33,20.701,4.065,21.308,3.556,22.521z"/>
	</g>
	<g>
		<path fill="#177EA4" d="M32.918,23.063c0,0-0.104-0.194-0.302-0.552c-0.094-0.182-0.232-0.395-0.403-0.638
			c-0.159-0.25-0.372-0.517-0.623-0.806c-0.504-0.567-1.178-1.221-2.086-1.744c-0.897-0.53-2.001-0.943-3.214-1.122
			c-1.213-0.177-2.51-0.153-3.854,0.136c-1.339,0.288-2.692,0.928-3.831,1.896c-1.124,0.988-1.993,2.319-2.42,3.803
			c-0.205,0.74-0.347,1.508-0.349,2.279c-0.026,0.771,0.045,1.551,0.231,2.31c0.343,1.523,1.133,2.878,2.157,3.879
			c1.025,1.012,2.266,1.674,3.495,2.021c1.231,0.361,2.433,0.444,3.535,0.397c1.108-0.046,2.143-0.268,3.039-0.618
			c1.808-0.687,3.021-1.813,3.696-2.655c0.328-0.432,0.578-0.774,0.714-1.022c0.148-0.244,0.225-0.37,0.225-0.37
			c0.39-0.965,0.381-1.935,0.149-2.59c-0.246-0.664-0.668-1.02-1.123-1.016c-0.465,0.002-0.886,0.33-1.226,0.762
			c-0.355,0.439-0.653,0.976-0.89,1.572c0,0-0.015,0.062-0.043,0.185c-0.032,0.121-0.061,0.316-0.161,0.549
			c-0.17,0.477-0.509,1.193-1.294,1.911c-0.767,0.721-2.031,1.409-3.747,1.591c-1.683,0.217-3.829-0.11-5.47-1.64
			c-2.114-1.861-2.533-5.407-1.267-7.881c0.606-1.254,1.645-2.204,2.791-2.763c1.156-0.556,2.415-0.736,3.574-0.666
			c1.17,0.071,2.183,0.379,2.965,0.808c0.786,0.427,1.341,0.967,1.719,1.463c0.389,0.492,0.595,0.949,0.729,1.261
			c0.115,0.323,0.179,0.493,0.179,0.493c0.24,0.613,0.535,1.17,0.901,1.609c0.346,0.438,0.776,0.755,1.24,0.746
			c0.457-0.01,0.866-0.375,1.104-1.031C33.276,24.972,33.294,24.021,32.918,23.063z"/>
	</g>
	<g>
		<path fill="none" stroke="#000000" stroke-width="0.8013" d="M22.623,29.346"/>
	</g>
</g>
</svg>
