<?xml version="1.0" encoding="utf-8"?>
<!-- Generator: Adobe Illustrator 19.2.0, SVG Export Plug-In . SVG Version: 6.00 Build 0)  -->
<svg version="1.1" id="Layer_1" xmlns="http://www.w3.org/2000/svg" xmlns:xlink="http://www.w3.org/1999/xlink" x="0px" y="0px"
	 viewBox="0 0 30 30" style="enable-background:new 0 0 30 30;" xml:space="preserve">
<style type="text/css">
	.st0{fill:#808184;}
</style>
<g>
	<path class="st0" d="M10.7,9.6l0.2,11.3l0.5,0l0.4-10.5c0-0.1,0.1-0.2,0.1-0.3s0.2-0.1,0.3-0.1l6.3,0.2l0-0.7L10.7,9.6z"/>
	<path class="st0" d="M16.9,8.3H9.1v11.3H10L9.8,9.2c0-0.1,0-0.2,0.1-0.3c0.1-0.1,0.2-0.1,0.3-0.1l6.6-0.1V8.3z"/>
	<path class="st0" d="M15,0C6.7,0,0,6.7,0,15s6.7,15,15,15s15-6.7,15-15S23.3,0,15,0z M20.8,22.9c0,0.1-0.1,0.2-0.1,0.3
		c-0.1,0.1-0.2,0.1-0.3,0.1c0,0,0,0,0,0L11.8,23c-0.2,0-0.4-0.2-0.4-0.5l0-0.8l-0.9,0c0,0,0,0,0,0c-0.2,0-0.4-0.2-0.4-0.4l0-0.9H8.7
		c-0.2,0-0.4-0.2-0.4-0.4V7.8c0-0.2,0.2-0.4,0.4-0.4h8.6c0.2,0,0.4,0.2,0.4,0.4v0.8l1.1,0c0.1,0,0.2,0,0.3,0.1
		c0.1,0.1,0.1,0.2,0.1,0.3l0,1.2l1.5,0.1c0.1,0,0.2,0.1,0.3,0.1c0.1,0.1,0.1,0.2,0.1,0.3L20.8,22.9z"/>
</g>
</svg>
