<?xml version="1.0" encoding="utf-8"?>
<!-- Generator: Adobe Illustrator 19.2.0, SVG Export Plug-In . SVG Version: 6.00 Build 0)  -->
<svg version="1.1" id="Layer_1" xmlns="http://www.w3.org/2000/svg" xmlns:xlink="http://www.w3.org/1999/xlink" x="0px" y="0px"
	 viewBox="0 0 30 30" style="enable-background:new 0 0 30 30;" xml:space="preserve">
<style type="text/css">
	.st0{fill:#177EA4;}
	.st1{fill:#FFFFFF;stroke:#FFFFFF;stroke-width:0.4746;stroke-linecap:round;stroke-linejoin:round;stroke-miterlimit:10;}
	.st2{fill:none;stroke:#FFFFFF;stroke-width:0.4746;stroke-linecap:round;stroke-linejoin:round;stroke-miterlimit:10;}
	.st3{fill:#808184;}
</style>
<circle class="st0" cx="15" cy="-16.8" r="10"/>
<polygon class="st1" points="20.7,-19.5 20.7,-12.8 13.3,-10.3 13.3,-17 "/>
<polygon class="st2" points="13.3,-10.3 13.3,-17 8.7,-20.7 8.7,-13.9 "/>
<polygon class="st2" points="20.7,-19.5 13.3,-17 8.7,-20.7 16.1,-23.1 "/>
<g>
	<path class="st3" d="M7.7,10.1l4.3,3.4c0.2,0.2,0.3,0.5,0.1,0.7c-0.2,0.2-0.5,0.3-0.7,0.1l-4.2-3.3v7.8l5.2,4.1v-8c0,0,0,0,0,0
		c0-0.1,0-0.2,0.1-0.3c0,0,0,0,0,0c0.1-0.1,0.1-0.1,0.2-0.2l9-3l-5.3-4.1L7.7,10.1z"/>
	<path class="st3" d="M15-0.1c-8.3,0-15,6.7-15,15c0,8.3,6.7,15,15,15s15-6.7,15-15C30,6.6,23.3-0.1,15-0.1z M23.3,20.5
		c0,0.2-0.1,0.4-0.3,0.5l-9.9,3.3c-0.1,0-0.1,0-0.2,0c0,0,0,0,0,0c0,0,0,0,0,0c0,0,0,0,0,0c-0.1,0-0.2,0-0.3-0.1c0,0,0,0,0,0
		c0,0,0,0,0,0l-6.2-4.9c-0.1-0.1-0.2-0.2-0.2-0.4v-9c0,0,0,0,0,0c0-0.1,0-0.2,0.1-0.2c0,0,0,0,0,0c0-0.1,0.1-0.1,0.1-0.1
		c0,0,0,0,0,0c0,0,0,0,0,0c0,0,0,0,0,0l9.9-3.3c0.2-0.1,0.3,0,0.5,0.1l6.2,4.8c0,0,0,0,0,0c0,0,0.1,0.1,0.1,0.1c0,0,0,0.1,0,0.1
		c0,0,0,0.1,0,0.1V20.5z"/>
</g>
</svg>
