<?xml version="1.0" encoding="utf-8"?>
<!-- Generator: Adobe Illustrator 19.2.0, SVG Export Plug-In . SVG Version: 6.00 Build 0)  -->
<svg version="1.1" id="Layer_1" xmlns="http://www.w3.org/2000/svg" xmlns:xlink="http://www.w3.org/1999/xlink" x="0px" y="0px"
	 viewBox="0 0 30 30" style="enable-background:new 0 0 30 30;" xml:space="preserve">
<style type="text/css">
	.st0{fill:#177EA4;}
	.st1{fill:none;stroke:#FFFFFF;stroke-width:0.4746;stroke-linecap:round;stroke-linejoin:round;stroke-miterlimit:10;}
	.st2{fill:#FFFFFF;stroke:#FFFFFF;stroke-width:0.4746;stroke-linecap:round;stroke-linejoin:round;stroke-miterlimit:10;}
	.st3{fill:#808184;}
	.st4{fill:#FFFFFF;}
</style>
<circle class="st0" cx="15" cy="-25" r="10"/>
<line class="st1" x1="15.3" y1="-31" x2="20.1" y2="-31"/>
<line class="st1" x1="15.3" y1="-28.5" x2="21.9" y2="-28.5"/>
<line class="st1" x1="15.3" y1="-26.1" x2="22.7" y2="-26.1"/>
<line class="st1" x1="10.1" y1="-18.8" x2="19.9" y2="-18.8"/>
<line class="st1" x1="8.1" y1="-21.2" x2="21.9" y2="-21.2"/>
<line class="st1" x1="7.2" y1="-23.7" x2="22.8" y2="-23.7"/>
<path class="st2" d="M7-25.3c0.1-2.3,1.1-4.3,2.7-5.7h4.5v5.7H7z"/>
<path class="st3" d="M15,0C6.7,0,0,6.7,0,15s6.7,15,15,15c8.3,0,15-6.7,15-15S23.3,0,15,0z M15.5,7.4h5.8c0.3,0,0.5,0.2,0.5,0.5
	s-0.2,0.5-0.5,0.5h-5.8c-0.3,0-0.5-0.2-0.5-0.5S15.2,7.4,15.5,7.4z M15.5,10.3h8c0.3,0,0.5,0.2,0.5,0.5s-0.2,0.5-0.5,0.5h-8
	c-0.3,0-0.5-0.2-0.5-0.5S15.2,10.3,15.5,10.3z M15.5,13.2h9c0.3,0,0.5,0.2,0.5,0.5c0,0.3-0.2,0.5-0.5,0.5h-9c-0.3,0-0.5-0.2-0.5-0.5
	C15,13.4,15.2,13.2,15.5,13.2z M5,14.6c0.1-2.8,1.3-5.3,3.4-7.1c0.1-0.1,0.2-0.1,0.3-0.1l5.4,0c0,0,0,0,0,0c0.1,0,0.2,0,0.3,0.1
	c0.1,0.1,0.1,0.2,0.1,0.3v6.8c0,0.3-0.2,0.5-0.5,0.5l-8.7,0c-0.1,0-0.3-0.1-0.3-0.1C5,14.9,5,14.8,5,14.6z M22.9,20.2H7.3
	c-0.3,0-0.5-0.2-0.5-0.5s0.2-0.5,0.5-0.5h15.6c0.3,0,0.5,0.2,0.5,0.5S23.2,20.2,22.9,20.2z M24.5,17.1H5.7c-0.3,0-0.5-0.2-0.5-0.5
	s0.2-0.5,0.5-0.5h18.8c0.3,0,0.5,0.2,0.5,0.5S24.8,17.1,24.5,17.1z"/>
<circle class="st3" cx="-21" cy="15" r="15"/>
<g>
	<path class="st4" d="M-20.5,8.3h5.8c0.3,0,0.5-0.2,0.5-0.5c0-0.3-0.2-0.5-0.5-0.5h-5.8c-0.3,0-0.5,0.2-0.5,0.5
		C-20.9,8.1-20.7,8.3-20.5,8.3z"/>
	<path class="st4" d="M-20.5,11.2h8c0.3,0,0.5-0.2,0.5-0.5c0-0.3-0.2-0.5-0.5-0.5h-8c-0.3,0-0.5,0.2-0.5,0.5
		C-20.9,11-20.7,11.2-20.5,11.2z"/>
	<path class="st4" d="M-20.5,14.2h9c0.3,0,0.5-0.2,0.5-0.5c0-0.3-0.2-0.5-0.5-0.5h-9c-0.3,0-0.5,0.2-0.5,0.5
		C-20.9,14-20.7,14.2-20.5,14.2z"/>
	<path class="st4" d="M-11.4,16.2h-18.8c-0.3,0-0.5,0.2-0.5,0.5c0,0.3,0.2,0.5,0.5,0.5h18.8c0.3,0,0.5-0.2,0.5-0.5
		C-11,16.4-11.2,16.2-11.4,16.2z"/>
	<path class="st4" d="M-13.1,19.3h-15.6c-0.3,0-0.5,0.2-0.5,0.5s0.2,0.5,0.5,0.5h15.6c0.3,0,0.5-0.2,0.5-0.5S-12.8,19.3-13.1,19.3z"
		/>
	<path class="st4" d="M-21.8,15.1c0.3,0,0.5-0.2,0.5-0.5V7.8c0-0.1-0.1-0.2-0.1-0.3c-0.1-0.1-0.2-0.1-0.3-0.1c0,0,0,0,0,0l-5.4,0
		c-0.1,0-0.2,0-0.3,0.1c-2.1,1.8-3.3,4.4-3.4,7.1c0,0.1,0,0.3,0.1,0.3c0.1,0.1,0.2,0.1,0.3,0.1L-21.8,15.1z"/>
</g>
</svg>
