<?xml version="1.0" encoding="utf-8"?>
<!-- Generator: Adobe Illustrator 19.2.0, SVG Export Plug-In . SVG Version: 6.00 Build 0)  -->
<svg version="1.1" id="Layer_1" xmlns="http://www.w3.org/2000/svg" xmlns:xlink="http://www.w3.org/1999/xlink" x="0px" y="0px"
	 viewBox="0 0 30 30" style="enable-background:new 0 0 30 30;" xml:space="preserve">
<style type="text/css">
	.st0{fill:#808285;}
</style>
<g>
	<circle class="st0" cx="12.6" cy="10.2" r="1"/>
	<path class="st0" d="M15,0C6.7,0,0,6.7,0,15s6.7,15,15,15s15-6.7,15-15S23.3,0,15,0z M21.4,21.5c-1.7,1.7-4.1,2.7-6.5,2.7
		c-5.1,0-9.2-4.1-9.2-9.2c0-5.1,4.1-9.2,9.2-9.2c2.5,0,4.8,1,6.5,2.7c0.2,0.2,0.2,0.5,0,0.7L15.5,15l5.9,5.9
		c0.1,0.1,0.1,0.2,0.1,0.3S21.5,21.5,21.4,21.5z"/>
</g>
</svg>
