<?xml version="1.0" encoding="utf-8"?>
<!-- Generator: Adobe Illustrator 19.2.0, SVG Export Plug-In . SVG Version: 6.00 Build 0)  -->
<svg version="1.1" id="Layer_1" xmlns="http://www.w3.org/2000/svg" xmlns:xlink="http://www.w3.org/1999/xlink" x="0px" y="0px"
	 viewBox="0 0 30 30" style="enable-background:new 0 0 30 30;" xml:space="preserve">
<style type="text/css">
	.st0{fill:#808184;}
	.st1{fill:#FFFFFF;}
</style>
<g>
	<path class="st0" d="M9.6,17.8l-0.3-0.1c-1.2,0.5-1.9,1.3-1.8,2c0,0.5,0.3,0.9,0.6,1.1c0-0.1,0-0.1,0-0.1C8,19.7,8.7,18.6,9.6,17.8
		z"/>
	<path class="st0" d="M11.4,18.3l-0.5-0.1C9.8,18.7,9,19.9,9,20.6c0,0.4,0.2,0.6,0.6,0.7l0,0c0,0,0,0,0,0
		C9.6,20.3,10.3,19.2,11.4,18.3z"/>
	<path class="st0" d="M12.6,18.7c-1.3,0.7-2,1.8-2,2.5c0,0.2,0.1,0.4,0.6,0.6c0,0,0,0,0,0l0.1,0c0-0.9,0.6-2.1,1.4-3.1L12.6,18.7z"
		/>
	<path class="st0" d="M16.9,8c0-0.1,0-0.1-0.1-0.1l-0.3-0.1c-0.1,0-0.1,0-0.2,0c-0.3,0.3-0.5,1.4-0.4,2.5C16.7,9.4,17.1,8.4,16.9,8z
		"/>
	<path class="st0" d="M19.7,12.2l0.3,0.1c1.2-0.5,1.9-1.3,1.8-2c0-0.5-0.3-0.9-0.6-1.1c0,0.1,0,0.1,0,0.1
		C21.3,10.3,20.6,11.4,19.7,12.2z"/>
	<path class="st0" d="M11.9,10c-0.4-1.1-0.4-2.4,0.1-3.2c0-0.1,0.1-0.1,0.1-0.1c-0.6-0.1-1,0.3-1.2,0.7C10.5,8,10.6,9,11.5,9.9
		L11.9,10z"/>
	<path class="st0" d="M18,11.7l0.5,0.1c1.1-0.5,1.9-1.7,1.9-2.5c0-0.4-0.2-0.6-0.6-0.7l0,0c0,0,0,0,0,0C19.7,9.7,19.1,10.8,18,11.7z
		"/>
	<path class="st0" d="M12.4,22c0,0.1,0,0.1,0.1,0.1h0l0.3,0.1c0,0,0,0,0,0c0.1,0,0.1,0,0.2,0c0.3-0.3,0.5-1.4,0.4-2.5
		C12.6,20.6,12.3,21.6,12.4,22z"/>
	<path class="st0" d="M17.5,20c0.4,1.1,0.4,2.4-0.1,3.2c0,0-0.1,0.1-0.1,0.1c0.6,0.1,1-0.3,1.2-0.7c0.4-0.7,0.3-1.7-0.6-2.6L17.5,20
		z"/>
	<path class="st0" d="M15,0C6.7,0,0,6.7,0,15s6.7,15,15,15s15-6.7,15-15S23.3,0,15,0z M23.1,18.7c-0.1,0.2-0.4,0.3-0.7,0.2
		c-0.1-0.1-0.3-0.1-0.5,0c-0.3,0.2-0.5,0.7-0.4,1.7c0.1,1-0.3,2-1.2,2.8c-0.8,0.7-1.9,1.1-2.8,1.1c0,0-0.1,0-0.1,0c0,0,0,0,0,0
		c-0.2,0-0.4,0-0.6-0.1l-1.4-0.4c0,0,0,0,0,0c0,0,0,0,0,0l-2.8-0.8c0,0,0,0,0,0c0,0,0,0,0,0l-0.3-0.1c0,0,0,0,0,0c0,0,0,0,0,0
		L11,22.7c0,0,0,0,0,0c0,0,0,0,0,0l-1.6-0.4c0,0,0,0,0,0c0,0,0,0,0,0L8,21.9c-0.7-0.2-1.4-1-1.5-2.1c0-0.7,0.2-2,2.4-3l1.8-6.3
		C9.5,9.3,9.5,7.8,10,6.8c0.5-1,1.5-1.4,2.5-1.2l4.3,1.2c0,0,0,0,0,0c0,0,0,0,0,0l0.3,0.1c0,0,0,0,0,0c0,0,0,0,0,0l1.3,0.3
		c0,0,0,0,0,0c0,0,0,0,0,0l1.6,0.4c0,0,0,0,0,0c0,0,0,0,0,0l1.4,0.4c0.7,0.2,1.4,1,1.5,2.1c0,0.7-0.2,2-2.4,3l-1.8,6.4
		c0.9,1,1.1,2.2,0.8,3.1c0,0,0.1-0.1,0.2-0.1c0.4-0.3,1-1,0.9-1.9c-0.2-1.2,0.1-2.2,0.8-2.6c0.5-0.3,1.1-0.3,1.6,0
		C23.1,18.1,23.2,18.4,23.1,18.7z"/>
	<path class="st0" d="M18.7,8.8c0-0.2-0.1-0.4-0.6-0.6l-0.1,0c0,0.9-0.6,2.1-1.4,3.1l0.1,0C17.9,10.6,18.7,9.5,18.7,8.8z"/>
	<path class="st0" d="M14.3,19.1c0.2,1.2,0.1,2.6-0.4,3.4l0.1,0c0.5,0.1,0.7,0,0.8-0.2c0.4-0.6,0.3-1.9-0.4-3.2L14.3,19.1z"/>
	<path class="st0" d="M13.7,7c-0.4-0.1-0.7,0-0.9,0.3c-0.4,0.6-0.4,2.1,0.3,3.1l0.4,0.1C13.1,9.2,13.1,7.8,13.7,7
		C13.7,7,13.7,7,13.7,7L13.7,7C13.7,7,13.7,7,13.7,7z"/>
	<path class="st0" d="M15.7,19.5c0.5,1.3,0.5,2.6-0.1,3.4c0,0,0,0,0,0l0,0c0,0,0,0,0,0c0.4,0.1,0.7,0,0.9-0.3
		c0.4-0.6,0.4-2.1-0.3-3.1L15.7,19.5z"/>
	<path class="st0" d="M14.5,7.7c-0.4,0.6-0.3,1.9,0.4,3.2l0.1,0c-0.2-1.2-0.1-2.6,0.4-3.4l-0.1,0C14.8,7.3,14.6,7.5,14.5,7.7z"/>
</g>
<circle class="st0" cx="-22" cy="15" r="15"/>
<path class="st1" d="M-14.1,18c-0.5-0.3-1.1-0.3-1.6,0c-0.7,0.4-1,1.4-0.8,2.6c0.1,0.9-0.5,1.6-0.9,1.9c0,0-0.1,0.1-0.2,0.1
	c0.3-0.9,0.1-2.1-0.8-3.1l1.8-6.4c2.1-1,2.4-2.3,2.4-3c-0.1-1-0.8-1.9-1.5-2.1l-1.4-0.4c0,0,0,0,0,0c0,0,0,0,0,0l-1.6-0.4
	c0,0,0,0,0,0c0,0,0,0,0,0l-1.3-0.3c0,0,0,0,0,0c0,0,0,0,0,0l-0.3-0.1c0,0,0,0,0,0c0,0,0,0,0,0l-4.3-1.2c-1-0.3-2,0.2-2.5,1.2
	c-0.5,1-0.5,2.5,0.7,3.7l-1.8,6.3c-2.2,1-2.5,2.3-2.4,3c0.1,1,0.8,1.9,1.5,2.1l1.4,0.4c0,0,0,0,0,0c0,0,0,0,0,0l1.6,0.4c0,0,0,0,0,0
	c0,0,0,0,0,0l1.3,0.3c0,0,0,0,0,0c0,0,0,0,0,0l0.3,0.1c0,0,0,0,0,0c0,0,0,0,0,0l2.8,0.8c0,0,0,0,0,0c0,0,0,0,0,0l1.4,0.4
	c0.2,0.1,0.4,0.1,0.6,0.1c0,0,0,0,0,0c0,0,0.1,0,0.1,0c0.9,0,2-0.4,2.8-1.1c0.9-0.8,1.3-1.8,1.2-2.8c-0.1-1,0.1-1.5,0.4-1.7
	c0.2-0.1,0.4,0,0.5,0c0.2,0.1,0.5,0.1,0.7-0.2C-13.8,18.4-13.9,18.1-14.1,18z M-25.8,21.8C-25.8,21.8-25.8,21.8-25.8,21.8
	c-0.5-0.1-0.6-0.4-0.6-0.6c-0.1-0.7,0.7-1.8,2-2.5l0.1,0c-0.8,1-1.4,2.2-1.4,3.1L-25.8,21.8z M-27.4,21.3c-0.4-0.1-0.6-0.3-0.6-0.7
	c0-0.8,0.8-2,1.9-2.5l0.5,0.1C-26.7,19.2-27.4,20.3-27.4,21.3C-27.3,21.3-27.3,21.3-27.4,21.3L-27.4,21.3z M-24.2,7.3
	C-24,7-23.7,6.9-23.3,7c0,0,0,0,0,0l0,0c0,0,0,0,0,0c-0.6,0.8-0.6,2.1-0.1,3.4l-0.4-0.1C-24.5,9.4-24.6,7.9-24.2,7.3z M-18.9,8.2
	c0.5,0.1,0.6,0.4,0.6,0.6c0.1,0.7-0.7,1.8-2,2.5l-0.1,0c0.8-1,1.4-2.2,1.4-3.1L-18.9,8.2z M-17.3,8.7c0.4,0.1,0.6,0.3,0.6,0.7
	c0,0.8-0.8,2-1.9,2.5l-0.5-0.1C-17.9,10.8-17.2,9.7-17.3,8.7C-17.3,8.7-17.3,8.7-17.3,8.7L-17.3,8.7z M-19.5,20l0.4,0.1
	c0.9,0.9,1,1.9,0.6,2.6c-0.2,0.4-0.6,0.7-1.2,0.7c0,0,0.1-0.1,0.1-0.1C-19.1,22.4-19.1,21.1-19.5,20z M-20.1,8
	c0.1,0.4-0.3,1.4-1,2.4c-0.1-1.2,0.1-2.3,0.4-2.5c0,0,0.1-0.1,0.2,0l0.3,0.1C-20.1,7.9-20.1,7.9-20.1,8z M-21.6,7.5
	c-0.5,0.8-0.5,2.1-0.4,3.4l-0.1,0c-0.7-1.2-0.8-2.6-0.4-3.2c0.1-0.1,0.3-0.3,0.8-0.2L-21.6,7.5z M-24.5,22.1c-0.1,0-0.1-0.1-0.1-0.1
	c-0.1-0.4,0.3-1.4,1-2.4c0.1,1.2-0.1,2.3-0.4,2.5c0,0-0.1,0.1-0.2,0c0,0,0,0,0,0L-24.5,22.1L-24.5,22.1z M-23.1,22.5
	c0.5-0.8,0.5-2.1,0.4-3.4l0.1,0c0.7,1.2,0.8,2.6,0.4,3.2c-0.1,0.1-0.3,0.3-0.8,0.2L-23.1,22.5z M-21.4,23
	C-21.4,22.9-21.4,22.9-21.4,23c0.6-0.8,0.6-2.2,0.1-3.4l0.5,0.1c0.7,1,0.8,2.4,0.3,3.1C-20.7,23-21,23.1-21.4,23
	C-21.4,23-21.4,23-21.4,23L-21.4,23z M-15.2,10.2c0,0.8-0.6,1.5-1.8,2l-0.3-0.1c0.9-0.7,1.6-1.9,1.5-2.9c0-0.1,0-0.1,0-0.1
	C-15.5,9.3-15.2,9.7-15.2,10.2z M-26.1,7.3c0.2-0.4,0.6-0.8,1.2-0.7c0,0-0.1,0.1-0.1,0.1c-0.5,0.8-0.6,2.1-0.1,3.2l-0.4-0.1
	C-26.4,9-26.5,8-26.1,7.3z M-29.5,19.8c0-0.8,0.6-1.5,1.8-2l0.3,0.1c-0.9,0.7-1.6,1.9-1.5,2.9c0,0.1,0,0.1,0,0.1
	C-29.2,20.7-29.5,20.3-29.5,19.8z"/>
</svg>
