<?xml version="1.0" encoding="utf-8"?>
<!-- Generator: Adobe Illustrator 19.2.0, SVG Export Plug-In . SVG Version: 6.00 Build 0)  -->
<svg version="1.1" id="Layer_1" xmlns="http://www.w3.org/2000/svg" xmlns:xlink="http://www.w3.org/1999/xlink" x="0px" y="0px"
	 viewBox="0 0 51.2 18.8" style="enable-background:new 0 0 51.2 18.8;" xml:space="preserve">
<style type="text/css">
	.st0{fill:#187EA5;}
	.st1{fill:#177EA4;}
	.st2{fill:#FFFFFF;}
</style>
<g>
	<g>
		<path class="st0" d="M76.3,14.3l-1.9,0.3c-0.1-0.1-0.2-0.3-0.2-0.5c-0.1-0.2-0.1-0.4-0.2-0.6h-0.1L73.6,14c-0.3,0.4-1.1,1-2,1.1
			c-1.4,0.1-2.3-0.7-2.3-1.8c-0.1-1.2,0.5-1.8,2-2.2l1.3-0.3c0.7-0.2,1.1-0.5,1.1-1.1c0-1.1-0.3-2.1-1.6-2c-0.9,0.1-1.2,0.8-1.2,1.5
			c0,0.4-0.3,0.6-0.6,0.6c-0.3,0-0.8-0.3-0.8-0.8c0.2-1,1.3-1.5,2.4-1.6c1.3-0.2,2.7,0,2.9,1.6c0.1,1.2,0,0.3,0,0.5l0.2,2.8
			c0.1,0.6,0.1,1.3,0.5,1.5c0.2,0.1,0.5,0.1,0.8,0.1l0.1,0.1L76.3,14.3L76.3,14.3z M73.3,11.1h-0.2c-0.1,0-2,0.3-2.4,1
			c-0.2,0.4-0.3,1.4,0.2,1.8c0.3,0.3,0.9,0.5,1.2,0.4c1.6-0.3,1.9-1.3,1.8-2.6C73.7,11.4,73.7,11,73.3,11.1z"/>
		<path class="st0" d="M82.4,13.9c-1.1,0.1-1.8-0.2-2.6-0.5c-0.2-0.1-0.4,0.2-0.5,0.4L79,14.3l-0.3-0.1c0-0.6,0-0.8-0.1-1.4
			c0-1-0.1-1.5-0.2-2.5L78,5.4c-0.1-0.7-0.2-1.4-0.6-1.8c-0.2-0.2-0.9-0.2-1.2-0.2l-0.1-0.1V3.1V3c0.6-0.1,1-0.2,1.7-0.4
			c0.4-0.1,0.7-0.2,1.1-0.3L79,2.4c0,0.3,0,0.5,0,0.7c0,0.7,0.1,1.1,0.2,1.8l0.3,2.7c0.7-0.9,1.5-1.3,2.7-1.4c2.7-0.2,3.4,1.4,3.6,3
			C86,11.4,85.3,13.5,82.4,13.9z M81.9,6.7c-2.1,0.3-2.4,2.1-2.3,3.7l0.1,0.8c0.2,1.7,1.3,2.2,2.6,2.2c1.7,0,2.4-2.1,2.1-3.9
			C84.2,8,83.6,6.5,81.9,6.7z"/>
		<path class="st0" d="M90.9,13c-2.4,0.3-3.8-0.7-4.1-3.1c-0.2-2,0.6-4.1,3.3-4.3c2.5-0.3,3.7,0.9,4,3.1C94.3,11,93.2,12.7,90.9,13z
			 M90.1,5.9c-1.8,0.2-2.2,2.1-2,3.8c0.2,2.1,1.2,3,2.7,2.8c1.6-0.2,2.1-1.8,1.9-3.8C92.6,7.2,92,5.7,90.1,5.9z"/>
		<path class="st0" d="M103.8,11.5c-0.5,0.1-0.9,0.1-1.4,0.2c-0.3,0.1-0.5,0.1-0.8,0.1l-0.1-0.1l-0.2-1h-0.1c-0.6,1-1.8,1.4-2.6,1.5
			c-1.4,0.2-2.5-0.6-2.6-1.8L95.7,7c0-0.5-0.1-0.9-0.4-1.1c-0.2-0.1-0.4-0.1-0.7-0.1h-0.2l-0.2-0.2V5.4l0.1-0.1
			c0.5-0.1,0.8-0.1,1.3-0.2C96,5,96.3,4.9,96.7,4.8c0.1,0.9,0.1,3.6,0.3,4.4c0.2,1,0.4,2.5,2.1,2.3s2.1-2,1.9-4l-0.1-1.1
			c-0.1-0.6-0.2-1-0.6-1.1c-0.3-0.1-0.6-0.1-1-0.1l-0.1-0.1V4.8l0.1-0.1c0.7,0,1.1-0.1,1.7-0.2c0.5-0.1,0.7-0.2,1.2-0.3
			c0,0.5,0,0.8,0,1.3c0,0.8,0,1.3,0.1,2.1l0.2,1.6c0.1,0.7,0.1,1.5,0.5,1.7c0.1,0.1,0.4,0.2,0.7,0.1h0.2l0.1,0.1v0.2L103.8,11.5z"/>
		<path class="st0" d="M108.6,4.1l-1.2,0.2c-0.3,0.1-0.6,0.1-0.7,0.3c-0.1,0.2-0.1,0.5-0.1,0.8l0.2,2.2c0.1,1,0.3,2.3,0.6,2.6
			c0.3,0.3,0.8,0.3,1,0.3l0.5-0.1h0.1v0.2l-0.1,0.1l-0.7,0.3c-0.3,0.1-0.5,0.1-0.8,0.2c-0.8,0.1-1.4-0.2-1.5-0.9L105.4,5
			c0-0.1,0-0.1,0-0.2c-0.2-0.4-1.2-0.2-1.4-0.2l-0.1-0.1V4.2l0.1-0.1l0.8-0.1c0.2,0,0.3,0,0.4-0.1c0.3-0.2,0.4-0.6,0.5-1l0.3-1.8
			l0.1-0.1h0.2l0.1,0.1l0.1,2.3c0,0.1,0,0.3,0.1,0.3c0.1,0.1,0.4,0.1,1,0.1l0.9-0.1l0.2,0.1L108.6,4.1L108.6,4.1z"/>
	</g>
	<g>
		<path class="st0" d="M94.2,24l-0.1,0.1c-0.8,0.1-1.2,0.1-2,0.2c-0.6,0.1-1,0.1-1.6,0.2l-0.1-0.1v-0.2l0.1-0.1
			c0.4-0.1,0.6-0.2,0.9-0.4c0.3-0.2,0.3-1,0.2-1.6l-0.2-2c-0.1-1.2-0.6-2.3-2.1-2.2c-1.5,0.2-2,1.5-1.9,2.9l0.2,1.8
			c0,0.4,0.1,1.2,0.5,1.4c0.2,0.1,0.7,0.2,1,0.3l0.1,0.1v0.2l-0.1,0.1c-0.8,0-1.3,0.1-2.1,0.1c-0.7,0.1-1.2,0.1-1.9,0.3L85,25v-0.3
			l0.1-0.1c0.4-0.1,0.7-0.1,0.9-0.4c0.2-0.2,0.3-0.6,0.2-1.5L86,20c-0.1-1-0.7-1.8-1.9-1.7c-1.4,0.1-2,1.4-1.8,3.2l0.2,1.6
			c0.1,0.5,0.2,1,0.4,1.3c0.2,0.2,0.9,0.2,1,0.2l0.1,0.1V25l-0.1,0.1c-0.8,0.1-1.2,0.1-2,0.2c-0.6,0.1-1,0.1-1.5,0.2h-0.2v-0.3V25
			c0.3,0,0.4-0.1,0.6-0.2c0.5-0.4,0.4-1.2,0.3-2l-0.3-2.9c0-0.1-0.1-0.6-0.3-0.9c-0.2-0.3-0.7-0.2-1-0.2h-0.1v-0.3l0.1-0.1l0.5-0.1
			c0.4,0,0.7-0.1,1.1-0.2c0.2-0.1,0.5-0.1,0.6-0.2l0.1,0.1l0.1,1.1l0.1,0.2c0.5-1.1,1.6-1.6,2.5-1.7c1.1-0.1,2,0.2,2.5,1.2
			c0.5-0.9,1.5-1.5,2.7-1.6c1.5-0.1,2.4,0.6,2.5,1.8l0.4,3.6c0,0.4,0.2,0.8,0.4,1c0.3,0.2,0.7,0.2,0.8,0.2l0.1,0.1L94.2,24z"/>
		<path class="st0" d="M101.2,19l-0.3,0.2l-3.4,0.4c-0.5,0.1-1.1,0.1-1.2,0.4c-0.3,0.5,0.3,3.3,2.8,3c0.7-0.1,1.5-0.4,2-1l0.3-0.3
			h0.1c0,0,0,0,0.1,0v0.2c-0.5,0.7-1.6,1.6-2.9,1.7c-2.6,0.3-3.7-1.3-3.9-3.2c-0.2-2.1,0.7-4,3.3-4.3c2-0.2,3,0.8,3.1,2
			C101.3,18.5,101.3,18.5,101.2,19z M97.9,16.7c-1.2,0.1-1.8,1.4-1.8,2.4c0,0.1,0.2,0.1,0.3,0.1l2.2-0.2c0.4,0,0.7,0,0.9-0.2
			c0.2-0.2,0.2-0.4,0.2-0.8C99.7,17.1,98.9,16.6,97.9,16.7z"/>
	</g>
	<g>
		<g>
			<g>
				<path class="st0" d="M92.6,33.4L92.6,33.4c-0.2-0.2-0.2-0.3-0.3-0.5c-0.2-0.3-0.6-0.7-1.1-1.2c-0.5-0.4-1.2-0.8-1.9-1.2
					c-0.8-0.3-1.6-0.6-2.5-0.8c-3.5-0.9-7.6-1-9.7-1.5c-1-0.2-2.2-0.8-2.9-1.9c-0.7-1.1-0.8-2.5-0.5-3.6c0.3-1.2,0.8-2.1,1.2-2.8
					c0.2-0.3,0.4-0.5,0.5-0.7c0.1-0.1,0.2-0.2,0.2-0.2c0.2-0.2,0.3-0.4,0.3-0.6s0-0.5-0.1-0.6c-0.1-0.2-0.3-0.2-0.6-0.2
					c-0.3,0-0.6,0.2-0.8,0.5c0,0-0.3,0.3-0.6,0.9c-0.3,0.6-0.8,1.4-1,2.5c-0.3,1-0.4,2.3-0.1,3.6c0.3,1.3,1.1,2.5,2.2,3.1
					c0.3,0.2,0.6,0.4,0.9,0.5c0.4,0,0.8,0.2,1.2,0.3c0.9,0.2,1.7,0.3,2.7,0.4c1.9,0.3,4,0.6,5.9,1.2c1.9,0.5,3.6,1.2,4.5,2
					c0.5,0.4,0.8,0.8,0.9,1.1c0.2,0.3,0.2,0.5,0.2,0.4c0.3,0.5,0.7,0.8,1.1,0.6C92.7,34.7,92.9,34,92.6,33.4z"/>
			</g>
		</g>
	</g>
	<g>
		<g>
			<g>
				<path class="st0" d="M87,36c0,0,0.8,0.1,1.9,0.4c0.6,0.1,1.3,0.3,2,0.5c0.4,0.1,0.7,0.2,1.1,0.3s0.8,0.3,1.3,0.3
					c0.3,0,0.6-0.2,0.7-0.4c0.2-0.2,0.3-0.4,0.4-0.6c0.2-0.3,0.4-0.6,0.5-0.9c0.4-0.6,0.7-1.1,1-1.5c0.6-0.8,1-1.3,1-1.3
					c0.2-0.4,0.1-0.9-0.3-1.1s-0.8,0-1.1,0.4c0,0-0.1,0.3-0.4,1.1c-0.2,0.4-0.4,0.8-0.7,1.4c-0.1,0.3-0.3,0.6-0.5,0.9
					c-0.2,0.3-0.3,0.8-0.5,1c-0.1,0.1-0.2,0.1-0.3,0.2c-0.1,0-0.3,0-0.5-0.1c-0.4-0.1-0.8-0.3-1.2-0.4c-0.8-0.3-1.5-0.6-2.1-0.8
					c-1.2-0.5-2.1-0.9-2.1-0.9c-0.5-0.2-0.9,0-1.1,0.4C86.3,35.4,86.5,35.9,87,36z"/>
			</g>
		</g>
	</g>
</g>
<g>
	
		<text transform="matrix(0.999 -4.496390e-02 4.496390e-02 0.999 8.4586 -34.5775)" class="st1" style="font-family:'ZapfInterLight'; font-size:12px;">about</text>
	
		<text transform="matrix(0.999 -4.496390e-02 4.496390e-02 0.999 16.8682 -25.4478)" class="st1" style="font-family:'ZapfInterLight'; font-size:12px;">me</text>
</g>
<g>
	<g>
		<path class="st1" d="M6.1,12.7l-1.6,0.1c-0.1-0.1-0.1-0.2-0.2-0.4c0-0.2-0.1-0.3-0.1-0.5H4.2l-0.3,0.3c-0.2,0.3-1,0.7-1.7,0.7
			c-1.2,0-1.8-0.7-1.7-1.6c0-0.9,0.6-1.4,1.8-1.6l1-0.1c0.6-0.1,0.9-0.3,1-0.8c0.1-0.9,0-1.7-1.1-1.7c-0.7,0-0.9,0.5-1,1
			c0,0.4-0.3,0.5-0.5,0.5C1.3,8.5,1,8.2,1.1,7.9c0.2-0.8,1.1-1.2,2-1.1c1,0,2.2,0.2,2.2,1.6c0,1,0,0.2,0,0.4l-0.1,2.2
			c0,0.5,0,1.1,0.2,1.3c0.1,0.1,0.4,0.2,0.7,0.1l0.1,0.1L6.1,12.7L6.1,12.7z M3.9,9.8H3.7c0,0-1.6,0.1-2,0.6c-0.2,0.3-0.4,1.1,0,1.5
			c0.2,0.3,0.7,0.4,0.9,0.4c1.3-0.1,1.7-0.9,1.6-2C4.2,10.1,4.2,9.8,3.9,9.8z"/>
		<path class="st1" d="M10.5,12.8c-0.9,0-1.5-0.4-2-0.6c-0.2-0.1-0.3,0.2-0.4,0.3l-0.3,0.4l-0.2-0.1c0-0.4,0-0.6,0.1-1.1
			c0-0.8,0.1-1.2,0.1-2v-4c0-0.6,0-1.2-0.3-1.5C7.3,4,6.7,3.9,6.4,3.9L6.4,3.8V3.7l0.1-0.1c0.5,0,0.8-0.1,1.4-0.2
			c0.4-0.1,0.6-0.1,0.9-0.2l0.1,0.1c0,0.2,0,0.4,0,0.6c0,0.6,0,0.9,0,1.5v2.2c0.7-0.6,1.4-0.9,2.3-0.8c2.2,0.1,2.6,1.4,2.6,2.7
			C13.6,11.2,12.9,12.8,10.5,12.8z M10.8,7c-1.7,0-2.1,1.5-2.1,2.8v0.7c0,1.4,0.8,1.9,1.9,2c1.4,0.1,2.1-1.5,2-2.9
			C12.5,8.3,12.2,7,10.8,7z"/>
		<path class="st1" d="M17,12.8c-1.9,0-3-0.9-3-2.9c0-1.6,0.8-3.2,3-3.2c2,0,2.9,1,2.9,2.8C19.9,11.5,18.9,12.8,17,12.8z M17,7.1
			c-1.4,0-1.9,1.5-1.9,2.9c0,1.7,0.7,2.5,1.9,2.5c1.3,0,1.9-1.3,1.9-2.9C18.9,8.4,18.5,7.1,17,7.1z"/>
		<path class="st1" d="M27.1,12.7c-0.4,0-0.7,0-1.1,0c-0.2,0-0.4,0-0.6,0l-0.1-0.1l-0.1-0.8H25c-0.6,0.8-1.5,0.9-2.2,1
			c-1.1,0.1-2-0.7-2-1.7l0.1-2.8c0-0.4,0-0.7-0.3-0.9c-0.1-0.1-0.3-0.1-0.5-0.2l-0.2,0l-0.1-0.1V7L20,6.9c0.4,0,0.7,0,1.1,0
			c0.4,0,0.6-0.1,0.9-0.1c0,0.8-0.2,2.9-0.2,3.6c0,0.8,0.1,2,1.5,2c1.3,0,1.8-1.4,1.8-3.1V8.4c0-0.5,0-0.8-0.4-1
			c-0.2-0.1-0.5-0.1-0.8-0.2l-0.1-0.1V7L24,6.9c0.5,0,0.9,0,1.4,0c0.4,0,0.6-0.1,1-0.1c0,0.4-0.1,0.6-0.1,1c0,0.7-0.1,1.1-0.1,1.7
			l0,1.3c0,0.6,0,1.2,0.2,1.4c0.1,0.1,0.3,0.2,0.5,0.2l0.1,0l0.1,0.1L27.1,12.7L27.1,12.7z"/>
		<path class="st1" d="M31.1,7.3l-0.9,0.1c-0.2,0-0.5,0.1-0.5,0.2c-0.1,0.2-0.1,0.4-0.1,0.6v1.8c0,0.8,0,1.9,0.3,2.2
			c0.2,0.3,0.7,0.3,0.8,0.3h0.4l0.1,0v0.2L31,12.6l-0.8,0.1c-0.2,0-0.4,0.1-0.7,0.1c-0.7,0-1.1-0.3-1.1-0.9V7.6c0-0.1,0-0.1,0-0.2
			c-0.1-0.3-0.9-0.2-1.1-0.3l-0.1-0.1V6.9l0.1-0.1l0.7,0c0.2,0,0.2,0,0.4-0.1c0.2-0.1,0.4-0.4,0.5-0.7l0.4-1.4l0.1-0.1h0.2l0.1,0.1
			l-0.1,1.8c0,0.1,0,0.2,0.1,0.3c0.1,0.1,0.3,0.1,0.8,0.1h0.7L31.2,7v0.2L31.1,7.3z"/>
		<path class="st1" d="M45.1,12.7L45.1,12.7c-0.7,0-1.1,0-1.7,0c-0.5,0-0.8,0-1.3,0L42,12.6v-0.2l0.1-0.1c0.3-0.1,0.5-0.1,0.7-0.3
			c0.2-0.2,0.3-0.7,0.3-1.2V9.3c0-0.9-0.3-1.9-1.5-1.9c-1.2,0-1.7,1.1-1.7,2.1v1.5c0,0.3,0,0.9,0.3,1.2c0.2,0.1,0.6,0.2,0.8,0.3
			l0.1,0.1v0.2L41,12.7c-0.7-0.1-1-0.1-1.7-0.1c-0.6,0-0.9,0-1.5,0.1l-0.1-0.1v-0.2l0.1-0.1c0.3,0,0.5-0.1,0.8-0.2
			c0.2-0.2,0.3-0.4,0.3-1.2V8.8c0-0.8-0.4-1.5-1.4-1.5c-1.1,0-1.8,0.9-1.8,2.4V11c0,0.4,0,0.9,0.2,1.1c0.2,0.2,0.7,0.2,0.8,0.2
			l0.1,0.1v0.2l-0.1,0.1c-0.6,0-1,0-1.7,0c-0.5,0-0.8,0-1.2,0l-0.1-0.1v-0.2l0.1-0.1c0.2,0,0.4,0,0.5-0.1c0.4-0.3,0.4-1,0.4-1.6V8.3
			c0,0,0-0.5-0.2-0.7c-0.2-0.2-0.5-0.3-0.7-0.3l-0.1,0V7l0.1-0.1h0.4c0.4,0,0.6,0,0.9-0.1c0.2,0,0.4-0.1,0.5-0.1l0.1,0.1v0.9
			l0.1,0.2c0.5-0.8,1.4-1.2,2.2-1.2c0.9,0,1.6,0.3,1.9,1.2c0.5-0.7,1.3-1.1,2.3-1.1c1.2,0,1.9,0.7,1.9,1.6v2.9
			c0,0.3,0.1,0.7,0.2,0.8c0.2,0.2,0.5,0.2,0.6,0.2l0.1,0.1L45.1,12.7z"/>
		<path class="st1" d="M50.7,9.3l-0.2,0.2h-2.8c-0.4,0-0.9,0-1,0.2c-0.3,0.4,0,2.7,2,2.7c0.6,0,1.2-0.2,1.7-0.6l0.3-0.2
			c0,0,0.1,0,0.1,0c0,0,0,0,0.1,0v0.2c-0.4,0.5-1.4,1.1-2.5,1.1c-2.1,0-2.9-1.4-2.9-2.9c0-1.7,0.9-3.2,3-3.2c1.6,0,2.3,0.9,2.3,1.8
			C50.8,8.9,50.8,8.9,50.7,9.3z M48.3,7.1c-0.9,0-1.6,1-1.6,1.8C46.7,9,46.8,9,46.9,9h1.8c0.3,0,0.6,0,0.8-0.1
			c0.2-0.1,0.2-0.3,0.2-0.6C49.7,7.6,49.1,7.1,48.3,7.1z"/>
	</g>
</g>
<g>
	<text transform="matrix(1 0 0 1 -4.634857e-04 -6.0482)" class="st1" style="font-family:'ZapfInterLight'; font-size:11.7px;">about me</text>
</g>
<rect x="113.3" class="st2" width="40" height="40"/>
</svg>
