<?xml version="1.0" encoding="utf-8"?>
<!-- Generator: Adobe Illustrator 19.2.0, SVG Export Plug-In . SVG Version: 6.00 Build 0)  -->
<svg version="1.1" id="Layer_1" xmlns="http://www.w3.org/2000/svg" xmlns:xlink="http://www.w3.org/1999/xlink" x="0px" y="0px"
	 viewBox="0 0 40 40" style="enable-background:new 0 0 40 40;" xml:space="preserve">
<style type="text/css">
	.st0{fill:#187EA5;}
</style>
<g>
	<g>
		<path class="st0" d="M7.1,14.3l-1.9,0.3c-0.1-0.1-0.2-0.3-0.2-0.5c-0.1-0.2-0.1-0.4-0.2-0.6l-0.1,0L4.4,14c-0.3,0.4-1.1,1-2,1.1
			c-1.4,0.1-2.3-0.7-2.3-1.8c-0.1-1.2,0.5-1.8,2-2.2l1.3-0.3c0.7-0.2,1.1-0.5,1.1-1.1c0-1.1-0.3-2.1-1.6-2C2,7.8,1.7,8.5,1.7,9.2
			c0,0.4-0.3,0.6-0.6,0.6C0.8,9.8,0.3,9.5,0.3,9C0.5,8,1.6,7.5,2.7,7.4C4,7.2,5.4,7.4,5.6,9c0.1,1.2,0,0.3,0,0.5l0.2,2.8
			c0.1,0.6,0.1,1.3,0.5,1.5c0.2,0.1,0.5,0.1,0.8,0.1L7.2,14l0,0.2L7.1,14.3z M4.1,11.1l-0.2,0c-0.1,0-2,0.3-2.4,1
			c-0.2,0.4-0.3,1.4,0.2,1.8c0.3,0.3,0.9,0.5,1.2,0.4c1.6-0.3,1.9-1.3,1.8-2.6C4.5,11.4,4.5,11,4.1,11.1z"/>
		<path class="st0" d="M13.2,13.9c-1.1,0.1-1.8-0.2-2.6-0.5c-0.2-0.1-0.4,0.2-0.5,0.4l-0.3,0.5l-0.3-0.1c0-0.6,0-0.8-0.1-1.4
			c0-1-0.1-1.5-0.2-2.5L8.8,5.4C8.7,4.7,8.6,4,8.2,3.6C8,3.4,7.3,3.4,7,3.4L6.9,3.3l0-0.2L6.9,3c0.6-0.1,1-0.2,1.7-0.4
			C9,2.5,9.3,2.4,9.7,2.3l0.1,0.1c0,0.3,0,0.5,0,0.7c0,0.7,0.1,1.1,0.2,1.8l0.3,2.7C11,6.7,11.8,6.3,13,6.2c2.7-0.2,3.4,1.4,3.6,3
			C16.8,11.4,16.1,13.5,13.2,13.9z M12.7,6.7c-2.1,0.3-2.4,2.1-2.3,3.7l0.1,0.8c0.2,1.7,1.3,2.2,2.6,2.2c1.7,0,2.4-2.1,2.1-3.9
			C15,8,14.4,6.5,12.7,6.7z"/>
		<path class="st0" d="M21.7,13c-2.4,0.3-3.8-0.7-4.1-3.1c-0.2-2,0.6-4.1,3.3-4.3c2.5-0.3,3.7,0.9,4,3.1C25.1,11,24,12.7,21.7,13z
			 M20.9,5.9c-1.8,0.2-2.2,2.1-2,3.8c0.2,2.1,1.2,3,2.7,2.8c1.6-0.2,2.1-1.8,1.9-3.8C23.4,7.2,22.8,5.7,20.9,5.9z"/>
		<path class="st0" d="M34.6,11.5c-0.5,0.1-0.9,0.1-1.4,0.2c-0.3,0.1-0.5,0.1-0.8,0.1l-0.1-0.1l-0.2-1l-0.1,0
			c-0.6,1-1.8,1.4-2.6,1.5c-1.4,0.2-2.5-0.6-2.6-1.8l-0.3-3.4c0-0.5-0.1-0.9-0.4-1.1c-0.2-0.1-0.4-0.1-0.7-0.1l-0.2,0L25,5.6l0-0.2
			l0.1-0.1c0.5-0.1,0.8-0.1,1.3-0.2c0.4-0.1,0.7-0.2,1.1-0.3c0.1,0.9,0.1,3.6,0.3,4.4c0.2,1,0.4,2.5,2.1,2.3c1.7-0.2,2.1-2,1.9-4
			l-0.1-1.1c-0.1-0.6-0.2-1-0.6-1.1c-0.3-0.1-0.6-0.1-1-0.1L30,5.1l0-0.3l0.1-0.1c0.7,0,1.1-0.1,1.7-0.2c0.5-0.1,0.7-0.2,1.2-0.3
			c0,0.5,0,0.8,0,1.3c0,0.8,0,1.3,0.1,2.1l0.2,1.6c0.1,0.7,0.1,1.5,0.5,1.7c0.1,0.1,0.4,0.2,0.7,0.1l0.2,0l0.1,0.1l0,0.2L34.6,11.5z
			"/>
		<path class="st0" d="M39.4,4.1l-1.2,0.2c-0.3,0.1-0.6,0.1-0.7,0.3c-0.1,0.2-0.1,0.5-0.1,0.8l0.2,2.2c0.1,1,0.3,2.3,0.6,2.6
			c0.3,0.3,0.8,0.3,1,0.3l0.5-0.1l0.1,0l0,0.2l-0.1,0.1L39,11c-0.3,0.1-0.5,0.1-0.8,0.2c-0.8,0.1-1.4-0.2-1.5-0.9L36.2,5
			c0-0.1,0-0.1,0-0.2C36,4.4,35,4.6,34.8,4.6l-0.1-0.1l0-0.3l0.1-0.1L35.6,4C35.8,4,35.9,4,36,3.9c0.3-0.2,0.4-0.6,0.5-1l0.3-1.8
			L36.9,1l0.2,0l0.1,0.1l0.1,2.3c0,0.1,0,0.3,0.1,0.3c0.1,0.1,0.4,0.1,1,0.1l0.9-0.1l0.2,0.1l0,0.2L39.4,4.1z"/>
	</g>
	<g>
		<path class="st0" d="M25,24l-0.1,0.1c-0.8,0.1-1.2,0.1-2,0.2c-0.6,0.1-1,0.1-1.6,0.2l-0.1-0.1l0-0.2l0.1-0.1
			c0.4-0.1,0.6-0.2,0.9-0.4c0.3-0.2,0.3-1,0.2-1.6l-0.2-2c-0.1-1.2-0.6-2.3-2.1-2.2c-1.5,0.2-2,1.5-1.9,2.9l0.2,1.8
			c0,0.4,0.1,1.2,0.5,1.4c0.2,0.1,0.7,0.2,1,0.3l0.1,0.1l0,0.2l-0.1,0.1c-0.8,0-1.3,0.1-2.1,0.1c-0.7,0.1-1.2,0.1-1.9,0.3l-0.1-0.1
			l0-0.3l0.1-0.1c0.4-0.1,0.7-0.1,0.9-0.4c0.2-0.2,0.3-0.6,0.2-1.5L16.8,20c-0.1-1-0.7-1.8-1.9-1.7c-1.4,0.1-2,1.4-1.8,3.2l0.2,1.6
			c0.1,0.5,0.2,1,0.4,1.3c0.2,0.2,0.9,0.2,1,0.2l0.1,0.1l0,0.3l-0.1,0.1c-0.8,0.1-1.2,0.1-2,0.2c-0.6,0.1-1,0.1-1.5,0.2L11,25.5
			l0-0.3L11,25c0.3,0,0.4-0.1,0.6-0.2c0.5-0.4,0.4-1.2,0.3-2l-0.3-2.9c0-0.1-0.1-0.6-0.3-0.9c-0.2-0.3-0.7-0.2-1-0.2l-0.1,0l0-0.3
			l0.1-0.1l0.5-0.1c0.4,0,0.7-0.1,1.1-0.2c0.2-0.1,0.5-0.1,0.6-0.2l0.1,0.1l0.1,1.1l0.1,0.2c0.5-1.1,1.6-1.6,2.5-1.7
			c1.1-0.1,2,0.2,2.5,1.2c0.5-0.9,1.5-1.5,2.7-1.6c1.5-0.1,2.4,0.6,2.5,1.8l0.4,3.6c0,0.4,0.2,0.8,0.4,1c0.3,0.2,0.7,0.2,0.8,0.2
			l0.1,0.1L25,24z"/>
		<path class="st0" d="M32,19l-0.3,0.2l-3.4,0.4c-0.5,0.1-1.1,0.1-1.2,0.4c-0.3,0.5,0.3,3.3,2.8,3c0.7-0.1,1.5-0.4,2-1l0.3-0.3
			c0,0,0.1,0,0.1,0c0,0,0,0,0.1,0l0,0.2c-0.5,0.7-1.6,1.6-2.9,1.7c-2.6,0.3-3.7-1.3-3.9-3.2c-0.2-2.1,0.7-4,3.3-4.3
			c2-0.2,3,0.8,3.1,2C32.1,18.5,32.1,18.5,32,19z M28.7,16.7c-1.2,0.1-1.8,1.4-1.8,2.4c0,0.1,0.2,0.1,0.3,0.1l2.2-0.2
			c0.4,0,0.7,0,0.9-0.2c0.2-0.2,0.2-0.4,0.2-0.8C30.5,17.1,29.7,16.6,28.7,16.7z"/>
	</g>
	<g>
		<g>
			<g>
				<path class="st0" d="M23.4,33.4c0,0,0,0-0.1-0.1c-0.1-0.1-0.1-0.2-0.2-0.4c-0.2-0.3-0.6-0.7-1.1-1.2c-0.5-0.4-1.2-0.8-1.9-1.2
					c-0.8-0.3-1.6-0.6-2.5-0.8c-3.5-0.9-7.6-1-9.7-1.5c-1-0.2-2.2-0.8-2.9-1.9c-0.7-1.1-0.8-2.5-0.5-3.6c0.3-1.2,0.8-2.1,1.2-2.8
					c0.2-0.3,0.4-0.5,0.5-0.7c0.1-0.1,0.2-0.2,0.2-0.2c0.2-0.2,0.3-0.4,0.3-0.6c0-0.2,0-0.5-0.1-0.6c-0.1-0.2-0.3-0.2-0.6-0.2
					c-0.3,0-0.6,0.2-0.8,0.5c0,0-0.3,0.3-0.6,0.9c-0.3,0.6-0.8,1.4-1,2.5c-0.3,1-0.4,2.3-0.1,3.6c0.3,1.3,1.1,2.5,2.2,3.1
					c0.3,0.2,0.6,0.4,0.9,0.5C7,28.7,7.4,28.9,7.8,29c0.9,0.2,1.7,0.3,2.7,0.4c1.9,0.3,4,0.6,5.9,1.2c1.9,0.5,3.6,1.2,4.5,2
					c0.5,0.4,0.8,0.8,0.9,1.1C22,34,22,34.2,22,34.1c0.3,0.5,0.7,0.8,1.1,0.6C23.5,34.7,23.7,34,23.4,33.4z"/>
			</g>
		</g>
	</g>
	<g>
		<g>
			<g>
				<path class="st0" d="M17.8,36c0,0,0.8,0.1,1.9,0.4c0.6,0.1,1.3,0.3,2,0.5c0.4,0.1,0.7,0.2,1.1,0.3c0.4,0.1,0.8,0.3,1.3,0.3
					c0.3,0,0.6-0.2,0.7-0.4c0.2-0.2,0.3-0.4,0.4-0.6c0.2-0.3,0.4-0.6,0.5-0.9c0.4-0.6,0.7-1.1,1-1.5c0.6-0.8,1-1.3,1-1.3
					c0.2-0.4,0.1-0.9-0.3-1.1c-0.4-0.2-0.8,0-1.1,0.4c0,0-0.1,0.3-0.4,1.1c-0.2,0.4-0.4,0.8-0.7,1.4c-0.1,0.3-0.3,0.6-0.5,0.9
					c-0.2,0.3-0.3,0.8-0.5,1c-0.1,0.1-0.2,0.1-0.3,0.2c-0.1,0-0.3,0-0.5-0.1c-0.4-0.1-0.8-0.3-1.2-0.4c-0.8-0.3-1.5-0.6-2.1-0.8
					c-1.2-0.5-2.1-0.9-2.1-0.9c-0.5-0.2-0.9,0-1.1,0.4C17.1,35.4,17.3,35.9,17.8,36z"/>
			</g>
		</g>
	</g>
</g>
</svg>
