<?xml version="1.0" encoding="utf-8"?>
<!-- Generator: Adobe Illustrator 16.0.0, SVG Export Plug-In . SVG Version: 6.00 Build 0)  -->
<!DOCTYPE svg PUBLIC "-//W3C//DTD SVG 1.1//EN" "http://www.w3.org/Graphics/SVG/1.1/DTD/svg11.dtd">
<svg version="1.1" id="Layer_1" xmlns="http://www.w3.org/2000/svg" xmlns:xlink="http://www.w3.org/1999/xlink" x="0px" y="0px"
	 width="50px" height="39.965px" viewBox="0 0 50 39.965" enable-background="new 0 0 50 39.965" xml:space="preserve">
<g>
	<g>
		<path fill="#177EA4" d="M50,33.107c0,0-0.095-3.887-0.242-9.896c-0.072-3.005-0.156-6.542-0.249-10.389
			c-0.046-1.924-0.093-3.925-0.141-5.977l-0.018-0.771l-0.01-0.388l-0.005-0.199l-0.02-0.27c-0.054-0.719-0.278-1.424-0.624-2.033
			c-0.707-1.218-1.809-2.052-2.979-2.55c-0.589-0.244-1.198-0.427-1.819-0.519c-0.31-0.046-0.622-0.08-0.933-0.09l-0.467-0.009
			L42.09,0.024l-3.214,0.072c-2.143,0.047-4.279,0.094-6.385,0.14c-4.21,0.087-8.291,0.172-12.022,0.25
			c-3.731,0.066-7.112,0.126-9.924,0.176C9.14,0.681,7.876,0.697,6.783,0.712c-1.137-0.02-2.134,0.223-2.851,0.501
			c-0.718,0.281-1.65,0.76-2.442,1.724c-0.39,0.479-0.729,1.093-0.878,1.819c-0.142,0.771-0.077,1.417-0.108,2.15
			c-0.05,2.906-0.11,6.422-0.176,10.314c-0.077,3.893-0.162,8.162-0.249,12.574c-0.023,1.104-0.046,2.215-0.069,3.332l-0.009,0.42
			c-0.003,0.139,0.011,0.35,0.019,0.523c0.034,0.361,0.106,0.723,0.225,1.064c0.233,0.688,0.623,1.301,1.092,1.809
			C2.28,37.971,3.52,38.6,4.797,38.906c0.628,0.166,1.325,0.213,1.921,0.229l1.678,0.037c17.856,0.406,34.262,0.777,34.262,0.777
			c1.669,0,3.023-0.9,3.023-2.01c0-1.107-1.354-2.006-3.023-2.006c0,0-14.872,0.152-31.282,0.322
			c-1.025,0.01-2.057,0.02-3.091,0.031l-1.553,0.014c-0.483,0.002-0.824-0.012-1.229-0.092c-1.555-0.256-2.883-1.385-2.902-2.482
			c-0.04-4.055-0.079-7.996-0.114-11.621C2.442,14.799,2.405,8.776,2.386,5.702C2.381,5.473,2.402,5.394,2.403,5.253
			c0.03-0.128,0.042-0.269,0.1-0.409C2.599,4.56,2.768,4.25,3.04,3.948c0.535-0.605,1.499-1.154,2.692-1.313
			c0.31-0.042,0.582-0.054,0.952-0.055c0.395,0.002,0.798,0.005,1.211,0.007C8.72,2.592,9.58,2.598,10.471,2.604
			c1.782,0.013,3.688,0.026,5.69,0.042c7.979,0.07,17.47,0.154,26.577,0.234c0.869,0.045,1.702,0.326,2.346,0.756
			c0.647,0.435,1.039,1.023,1.125,1.551c0.018,0.066,0.026,0.134,0.022,0.201c0.004,0.061,0.013,0.123,0.008,0.287l-0.008,0.819
			c-0.004,0.545-0.009,1.085-0.015,1.622c-0.009,1.073-0.019,2.128-0.028,3.163c-0.038,4.138-0.073,7.943-0.104,11.177
			c-0.062,6.468-0.101,10.651-0.101,10.651c0,1.67,0.898,3.023,2.007,3.023C49.101,36.131,50,34.777,50,33.107z"/>
	</g>
	<g>
		<path fill="#177EA4" d="M27.348,8.654c0,0-0.091-0.001-0.262-0.003c-0.174-0.007-0.416,0-0.718,0.012
			c-0.609,0.009-1.457,0.054-2.458,0.103c-2,0.104-4.616,0.271-7.251,0.232c-2.635-0.04-4.806-0.288-6.343-0.519
			C8.785,8.244,7.873,8.034,7.873,8.034c-0.785,0.048-1.385,0.9-1.229,1.804c0.157,0.92,0.77,1.578,1.49,1.533
			c0,0,0.532-0.285,1.64-0.578c1.108-0.284,2.783-0.574,4.986-0.571c2.765,0.004,5.823,0.334,8.131,0.761
			c1.153,0.209,2.126,0.433,2.776,0.626c0.668,0.179,1.006,0.323,1.006,0.323c0.164,0.033,0.329,0.019,0.492-0.035
			c0.146-0.046,0.284-0.129,0.428-0.245c0.282-0.231,0.57-0.582,0.738-1.012c0.168-0.431,0.164-0.87-0.027-1.246
			c-0.094-0.186-0.236-0.36-0.405-0.494C27.741,8.783,27.554,8.697,27.348,8.654z"/>
	</g>
	<g>
		<path fill="#177EA4" d="M39.543,14.929c0,0-0.143,0.022-0.409,0.063c-0.264,0.047-0.661,0.083-1.135,0.198
			c-0.971,0.179-2.28,0.561-3.785,1.054c-1.505,0.488-3.202,1.123-5.046,1.605c-0.923,0.254-1.883,0.427-2.866,0.535
			c-0.986,0.094-1.968,0.047-3.001-0.105c-2.044-0.25-3.887-0.732-5.522-1.153c-1.637-0.43-3.074-0.828-4.288-1.111
			c-0.611-0.143-1.157-0.27-1.631-0.381c-0.488-0.084-0.903-0.156-1.24-0.215c-0.68-0.131-1.043-0.201-1.043-0.201
			c-1.318,0.099-2.271,0.931-2.128,1.845c0.144,0.913,1.134,1.592,2.21,1.501c0,0,0.213-0.054,0.642-0.134
			c0.431-0.058,1.071-0.23,1.95-0.238c1.75-0.14,4.402,0.161,7.88,0.84c1.101,0.198,2.228,0.414,3.387,0.567
			c0.565,0.103,1.171,0.149,1.781,0.191c0.601,0.006,1.206,0.02,1.791-0.031c2.36-0.148,4.521-0.656,6.376-0.976
			c1.851-0.343,3.389-0.525,4.443-0.549c0.529-0.02,0.938-0.007,1.212,0.018c0.275,0.016,0.425,0.024,0.425,0.024
			c1.02,0.006,1.952-0.565,2.164-1.48c0.089-0.454-0.083-0.901-0.479-1.262C40.836,15.154,40.226,14.954,39.543,14.929z"/>
	</g>
	<g>
		<path fill="#177EA4" d="M39.247,22.555c0,0-0.101,0.045-0.289,0.129c-0.192,0.08-0.46,0.223-0.86,0.334
			c-0.762,0.277-1.966,0.531-3.456,0.725c-2.999,0.39-7.145,0.255-11.319-0.141c-4.208-0.287-7.696-0.485-10.18-0.439
			c-1.238,0.032-2.23-0.051-2.9,0.018c-0.675,0.035-1.035,0.055-1.035,0.055c-1.243,0.287-2.031,1.242-1.759,2.126
			c0.271,0.883,1.384,1.396,2.482,1.142c0,0,0.201-0.107,0.609-0.295c0.206-0.088,0.457-0.221,0.773-0.324
			c0.321-0.092,0.694-0.197,1.118-0.317c0.427-0.114,0.91-0.235,1.448-0.36c0.269-0.061,0.55-0.133,0.849-0.184
			c0.301-0.036,0.615-0.074,0.941-0.113c0.655-0.072,1.365-0.141,2.128-0.2c0.763-0.07,1.584-0.019,2.454-0.011
			c2.188-0.012,4.461,0.363,6.716,0.643c2.242,0.296,4.426,0.569,6.368,0.706c1.941,0.144,3.652,0.13,4.899,0.013
			c0.624-0.055,1.126-0.122,1.479-0.205c0.352-0.069,0.541-0.106,0.541-0.106c0.334-0.091,0.648-0.294,0.902-0.481
			c0.128-0.098,0.242-0.199,0.341-0.309c0.1-0.127,0.183-0.254,0.249-0.381c0.266-0.512,0.238-0.987-0.036-1.356
			c-0.276-0.37-0.722-0.596-1.132-0.703c-0.104-0.026-0.205-0.043-0.305-0.05c-0.113-0.019-0.23-0.031-0.344-0.03
			C39.695,22.429,39.495,22.49,39.247,22.555z"/>
	</g>
	<g>
		<path fill="#177EA4" d="M39.504,29.066c0,0-1.985,0.311-5.019,0.635c-0.38,0.037-0.776,0.076-1.186,0.119
			c-0.411,0.018-0.837,0.039-1.275,0.059c-0.878,0.029-1.804,0.059-2.762,0.09c-1.921,0.035-3.972,0.059-6.036-0.043
			c-4.131-0.182-7.509-0.66-9.89-0.975c-2.375-0.344-3.721-0.664-3.721-0.664c-1.198-0.027-2.169,0.699-2.167,1.623
			s0.958,1.697,2.132,1.725c0,0,0.913-0.217,2.697-0.412c0.892-0.1,2.002-0.191,3.323-0.25c1.325-0.037,2.861-0.021,4.6,0.057
			c4.361,0.225,9.201,0.598,12.949,0.973c3.77,0.211,6.464,0.41,6.464,0.41c1.208-0.016,2.146-0.775,2.097-1.699
			C41.66,29.789,40.674,29.053,39.504,29.066z"/>
	</g>
</g>
</svg>
