<?xml version="1.0" encoding="utf-8"?>
<!-- Generator: Adobe Illustrator 16.0.0, SVG Export Plug-In . SVG Version: 6.00 Build 0)  -->
<!DOCTYPE svg PUBLIC "-//W3C//DTD SVG 1.1//EN" "http://www.w3.org/Graphics/SVG/1.1/DTD/svg11.dtd">
<svg version="1.1" id="Layer_1" xmlns="http://www.w3.org/2000/svg" xmlns:xlink="http://www.w3.org/1999/xlink" x="0px" y="0px"
	 width="50px" height="39.965px" viewBox="0 0 50 39.965" enable-background="new 0 0 50 39.965" xml:space="preserve">
<g>
	<g>
		<path fill="#177EA4" d="M50,32.645c0,0-0.095-3.854-0.242-9.814c-0.072-2.98-0.157-6.487-0.25-10.302
			c-0.048-1.916-0.099-3.909-0.151-5.952c-0.068-1.27-0.465-2.526-1.178-3.601c-0.753-1.035-1.743-1.915-2.939-2.421
			c-0.286-0.146-0.61-0.204-0.916-0.303l-0.465-0.13c-0.158-0.029-0.319-0.035-0.479-0.052C43.062,0.042,42.729,0.013,42.425,0
			L41.63,0.019L38.442,0.09c-2.124,0.047-4.244,0.095-6.331,0.141C27.937,0.318,23.89,0.403,20.189,0.48
			c-3.7,0.066-7.053,0.127-9.841,0.177C8.954,0.675,7.701,0.691,6.617,0.706C5.46,0.765,4.465,1.014,3.795,1.41
			C3.624,1.503,3.44,1.603,3.244,1.709c-0.187,0.118-0.36,0.282-0.557,0.435C2.271,2.43,1.949,2.886,1.558,3.343
			c-0.3,0.521-0.644,1.081-0.813,1.765C0.611,5.436,0.584,5.796,0.544,6.166c-0.02,0.185-0.04,0.372-0.06,0.562
			C0.482,6.903,0.479,7.08,0.477,7.261c-0.05,2.881-0.11,6.368-0.177,10.229c-0.077,3.86-0.162,8.094-0.249,12.469
			c-0.012,0.547-0.023,1.097-0.035,1.647L0,32.434l0.077,0.977c0.196,1.285,0.721,2.572,1.644,3.544
			c0.911,0.972,2.101,1.688,3.417,2.013c1.433,0.244,2.444,0.176,3.566,0.221c17.708,0.405,33.977,0.777,33.977,0.777
			c1.654,0,2.997-0.899,2.997-2.01c0-1.109-1.343-2.009-2.997-2.009c0,0-14.749,0.153-31.021,0.323
			c-1.017,0.01-2.04,0.021-3.066,0.03c-0.989,0.008-2.194,0.044-2.781-0.044c-1.42-0.253-2.699-1.348-3.076-2.757l-0.09-0.257
			c-0.015-0.088-0.017-0.181-0.028-0.27c-0.018-0.181-0.041-0.359-0.068-0.54c-0.005-0.502-0.01-1.002-0.015-1.498
			c-0.009-0.996-0.018-1.982-0.026-2.955c-0.017-1.944-0.034-3.835-0.049-5.646c-0.027-3.623-0.052-6.927-0.073-9.708
			c-0.007-1.39-0.015-2.649-0.021-3.751c-0.001-0.55-0.003-1.062-0.005-1.532c0-0.231,0.001-0.453,0.002-0.663
			c0.018-0.16,0.035-0.311,0.051-0.454C2.438,5.65,2.708,4.941,3.204,4.234C3.703,3.528,4.567,2.878,5.667,2.66
			c0.278-0.028,0.562-0.056,0.854-0.084C6.911,2.577,7.312,2.58,7.72,2.582C8.538,2.587,9.391,2.593,10.274,2.6
			c1.768,0.013,3.658,0.026,5.643,0.041c7.938,0.066,17.379,0.146,26.44,0.223c0.855,0.047,1.567,0.254,2.233,0.679
			c0.621,0.464,1.092,1.086,1.38,1.774c0.047,0.181,0.1,0.358,0.157,0.534c0.063,0.175,0.033,0.369,0.063,0.549l0.031,0.274
			c0.008,0.103,0,0.26,0.001,0.387L46.215,7.86c-0.01,1.064-0.02,2.111-0.028,3.137c-0.038,4.104-0.074,7.877-0.104,11.084
			c-0.062,6.414-0.102,10.563-0.102,10.563c0,1.656,0.9,2.998,2.009,2.998C49.101,35.643,50,34.301,50,32.645z"/>
	</g>
	<g>
		<g>
			<path fill="#177EA4" d="M16.851,6.8c0,0-0.051-0.08-0.15-0.226c-0.11-0.141-0.223-0.367-0.472-0.589
				c-0.422-0.482-1.271-1.006-2.26-1.089c-0.948-0.087-2.116,0.115-2.988,0.938c-0.896,0.787-1.196,2.105-0.93,3.236
				c0.114,0.588,0.443,1.088,0.81,1.495c0.392,0.389,0.858,0.67,1.33,0.818c0.943,0.305,1.83,0.266,2.584,0.043
				c0.768-0.212,1.289-0.683,1.625-1.003c0.292-0.367,0.453-0.569,0.453-0.569c0.144-0.418,0.119-0.846-0.104-1.122
				c-0.202-0.282-0.507-0.415-0.854-0.412c-0.346,0.003-0.674,0.111-0.911,0.218c-0.22,0.121-0.422,0.209-0.454,0.359
				c-0.029-0.013,0.137,0.296-0.204,0.806c-0.179,0.235-0.518,0.522-1.07,0.603c-0.527,0.101-1.212,0.025-1.726-0.442
				c-0.31-0.298-0.513-0.711-0.576-1.158c-0.059-0.454,0.051-0.921,0.244-1.287c0.413-0.758,1.262-0.985,1.942-0.892
				c0.721,0.105,1.068,0.476,1.214,0.738c0.033,0.074,0.065,0.132,0.094,0.183c0.014,0.062,0.025,0.114,0.035,0.157
				c0.021,0.082,0.037,0.121,0.034,0.123C14.621,8,15.188,8.304,15.894,8.321c0.347-0.007,0.649-0.146,0.847-0.424
				C16.958,7.625,16.985,7.21,16.851,6.8z"/>
		</g>
		<g>
			<path fill="#177EA4" d="M11.579,34.613c0,0,1.314-0.06,3.348-0.151c0.434-0.012,0.888-0.022,1.358-0.035
				c0.111-0.009,0.243,0.005,0.338-0.021l0.008-0.369c0.005-0.245,0.011-0.493,0.016-0.747c0.007-0.43,0.015-0.873,0.023-1.327
				c0-0.293,0-0.594,0.001-0.9c-0.013-1.215,0.033-2.571-0.026-3.87c-0.064-2.667-0.121-5.461-0.212-7.81
				c-0.097-2.372-0.194-4.218-0.391-5.243c-0.031-0.136-0.067-0.291-0.153-0.445c-0.039-0.083-0.111-0.141-0.189-0.2
				c-0.075-0.064-0.154-0.128-0.255-0.169c-0.396-0.221-0.863-0.293-1.331-0.323c-0.481-0.031-1.003-0.015-1.559,0.037
				c-0.278,0.026-0.564,0.06-0.858,0.103c-0.352,0.052-0.763,0.133-1.16,0.22l-0.306,0.068c-0.074-0.004-0.053,0.061-0.054,0.111
				l0.003,0.153c0.004,0.208,0.009,0.418,0.013,0.631c0.01,0.37,0.02,0.746,0.031,1.129c0.009,0.66,0.019,1.341,0.028,2.033
				c0.021,1.384,0.003,2.812-0.001,4.21c-0.046,2.793-0.138,5.472-0.317,7.412c-0.107,0.959-0.144,1.783-0.254,2.295
				c-0.1,0.516-0.156,0.808-0.156,0.808c-0.064,0.468,0.433,0.982,1.107,1.146c0.674,0.163,1.289-0.164,1.371-0.733
				c0,0,0.038-0.314,0.105-0.87c0.096-0.571,0.062-1.309,0.107-2.246c0.064-1.86-0.006-4.334-0.117-6.928
				c-0.117-2.591-0.293-5.293-0.474-7.591L11.6,14.737l-0.014-0.117l-0.015-0.119c0.025-0.018,0.068-0.023,0.1-0.035
				c0.074-0.019,0.146-0.037,0.214-0.055c0.224-0.04,0.438-0.078,0.643-0.114c0.82-0.129,1.471-0.144,1.85-0.094
				c0.087,0.017,0.21,0.02,0.299,0.054c0.042,0.007,0.087,0.026,0.141,0.054c0.047,0.032,0.105,0.069,0.113,0.141
				c0.014,0.079,0.018,0.069,0.046,0.344c0.085,0.867,0.102,2.004,0.098,3.244c-0.01,2.492-0.123,5.473-0.238,8.34
				c-0.037,0.706-0.039,1.453-0.087,2.136c-0.045,0.681-0.089,1.346-0.131,1.984c-0.039,0.563-0.076,1.105-0.11,1.615
				c-0.007,0.056-0.027,0.074-0.068,0.051c-1.738-0.038-2.862-0.063-2.862-0.063c-0.525,0-0.95,0.562-0.95,1.255
				C10.629,34.052,11.054,34.613,11.579,34.613z"/>
		</g>
		<g>
			<path fill="none" d="M20.068,13.787h5.027c0,0-0.518,3.793,0.227,2.799c0.744-0.995,3.109-3.241,6.365-3.241
				c3.415,0,6.952,2.21,6.952,8.4v11.614c0,0-4.617,0.325-4.943,0c-0.733-0.73,0-11.052,0-11.052c0-2.813-1.045-4.943-3.738-4.943
				c-1.968,0-3.335,1.406-3.858,2.893c-0.159,0.442-0.199,1.045-0.199,1.608c0,0,0.744,10.749,0,11.493
				c-0.332,0.331-4.984,0-4.984,0s0.6-6.434,0.393-10.019c-0.209-3.585-0.365-5.951-0.553-8.18"/>
			<g>
				<path fill="#177EA4" d="M19.639,17.261c0,0,0.21,2.313,0.54,5.926c0.054,0.893,0.064,1.848,0.104,2.879
					c0.014,1.034-0.036,2.153-0.052,3.313c-0.026,0.582-0.052,1.177-0.079,1.782c-0.016,0.315-0.032,0.635-0.047,0.957
					c-0.035,0.527-0.069,1.061-0.105,1.596l-0.025,0.396c-0.036,0.092,0.062,0.07,0.126,0.077l0.203,0.012l0.809,0.045
					c0.462,0.019,0.927,0.037,1.395,0.057c0.652,0.016,1.312,0.024,1.99,0.011l0.546-0.02c0.264-0.028,0.539-0.027,0.78-0.1
					c0.128-0.022,0.237-0.073,0.341-0.129c0.1-0.058,0.231-0.099,0.305-0.197c0.148-0.197,0.25-0.419,0.311-0.671
					c0.063-0.253,0.091-0.519,0.118-0.771l0.029-0.526c0.015-0.347,0.016-0.688,0.017-1.026c-0.006-1.356-0.071-2.695-0.146-4.019
					c-0.076-1.323-0.171-2.63-0.273-3.904c-0.135-1.349-0.203-2.351,0.411-3.319c0.525-0.951,1.438-1.582,2.383-1.795
					c0.96-0.174,1.975-0.005,2.621,0.519c0.668,0.518,1.023,1.289,1.223,1.997c0.083,0.361,0.142,0.712,0.189,1.038
					c0.021,0.329,0.038,0.634,0.055,0.913c-0.091,1.57-0.118,2.031-0.14,2.411c-0.033,0.65-0.079,1.555-0.15,2.926
					c-0.028,0.687-0.059,1.489-0.07,2.439c-0.006,0.476-0.006,0.986,0.013,1.542c0.011,0.286,0.022,0.546,0.058,0.89
					c0.042,0.371,0.092,0.765,0.313,1.08c0.338,0.254,0.866,0.261,1.315,0.287c0.395,0.018,0.796,0.018,1.21,0.016
					c0.414-0.009,0.84-0.017,1.277-0.025c0.561-0.024,1.136-0.05,1.724-0.077l0.117-0.006c0.037-0.005,0.011-0.067,0.021-0.099
					l0.004-0.231l0.008-0.469c0.006-0.304,0.011-0.611,0.017-0.921c0.009-0.473,0.02-0.956,0.029-1.445
					c0.021-0.979,0.041-1.988,0.063-3.019c0.036-2.068,0.107-4.175,0.118-6.362c0.003-2.213-0.544-4.633-2.115-6.424
					c-1.564-1.813-3.972-2.538-6.009-2.416c-2.105,0.089-3.894,0.958-5.165,1.929c-0.619,0.472-1.25,1.079-1.64,1.568
					c0.076,0.033,0.334,0.268,0.439,0.371c0.119,0.107,0.218,0.247,0.25,0.312c0.04,0.095,0.009,0.093,0.036,0.065
					c0.024-0.039,0.047-0.049,0.092-0.077c0.053-0.039,0.11-0.067,0.17-0.084c0.254-0.131,0.902-0.224,0.715-0.212l-0.004-0.1
					c-0.004-0.18,0.008-0.403,0.023-0.605c0.03-0.302,0.057-0.577,0.081-0.825c0.041-0.366,0.087-0.696,0.132-0.988
					c0.09-0.589,0.152-0.999,0.185-1.209c-4.221-0.01-4.445-0.01-4.445-0.01c-1.107,0-2.007,0.563-2.007,1.257
					c0,0.693,0.899,1.255,2.007,1.255c0,0,0.086,0,1.633-0.004c0.003-0.002,0.006-0.005,0.011-0.003l0.006,0.006
					c0.01-0.092-0.012,0.221-0.02,0.471c-0.006,0.267-0.017,0.537,0.019,0.929c0.011,0.101,0.021,0.206,0.058,0.362
					c0.011,0.061,0.048,0.184,0.085,0.281c0.028,0.07,0.074,0.16,0.119,0.235c0.027,0.057,0.178,0.25,0.294,0.341
					c0.123,0.118,0.455,0.28,0.687,0.293c0.119,0.011,0.246,0.007,0.368-0.013c0.061-0.01,0.12-0.024,0.177-0.042l0.098-0.038
					c0.113-0.045,0.271-0.142,0.324-0.186c0.056-0.044,0.11-0.093,0.162-0.143c0.091-0.091,0.126-0.142,0.188-0.218
					c-0.042,0.054,0.03-0.037,0.039-0.048c0.098-0.118,0.197-0.239,0.299-0.363c0.09-0.09,0.182-0.183,0.274-0.278
					c0.188-0.19,0.448-0.407,0.695-0.611c1.037-0.797,2.438-1.483,4.032-1.536c1.62-0.058,3.349,0.563,4.451,1.938
					c1.127,1.377,1.54,3.399,1.56,5.416c0.021,2.153,0.04,4.286,0.059,6.314c0.009,1.014,0.018,2.001,0.026,2.952
					c0.003,0.396,0.007,0.785,0.012,1.165c-0.002,0.121,0.052,0.297-0.123,0.259c-0.436,0.055-3.552,0.174-3.229,0.058
					c-0.06-0.108-0.059-0.193-0.077-0.329c-0.028-0.289-0.043-0.569-0.054-0.83c-0.021-0.522-0.023-0.97-0.024-1.353
					c0.011-0.769,0.018-1.28,0.023-1.705c0.031-0.945,0.059-2.295,0.314-6.039c-0.031-0.829-0.043-1.707-0.382-2.717
					c-0.073-0.25-0.152-0.504-0.302-0.756c-0.148-0.247-0.231-0.524-0.454-0.752c-0.21-0.227-0.379-0.501-0.648-0.688
					c-0.271-0.179-0.529-0.411-0.836-0.532c-0.308-0.11-0.627-0.251-0.948-0.318c-0.321-0.035-0.647-0.071-0.979-0.108
					c-0.333,0.009-0.679,0.032-1.02,0.09c-0.334,0.096-0.69,0.153-1.005,0.325c-1.32,0.579-2.329,1.753-2.812,3.151
					c-0.078,0.37-0.214,0.809-0.21,1.138l-0.029,0.526c-0.002,0.08-0.017,0.187-0.003,0.319l0.014,0.232
					c0.031,0.626,0.063,1.258,0.096,1.895c0.058,1.274,0.105,2.567,0.131,3.861c0.022,1.289,0.035,2.6-0.045,3.828l-0.038,0.436
					l-0.016,0.083c-0.004,0.051-0.039,0.094-0.095,0.085l-0.463,0.003l-0.923-0.022l-0.93-0.043l-0.41-0.023l-0.056-0.008
					c-0.027-0.012-0.09,0.008-0.082-0.031l0.017-0.104c0.044-0.547,0.087-1.087,0.13-1.615c0.052-0.588,0.087-1.168,0.113-1.736
					c0.152-2.247,0.157-4.395,0.092-6.139c-0.202-3.456-0.33-5.637-0.33-5.637c-0.075-1.111-0.696-1.964-1.387-1.905
					C20.065,15.219,19.564,16.159,19.639,17.261z"/>
			</g>
		</g>
	</g>
</g>
</svg>
