<?xml version="1.0" encoding="utf-8"?>
<!-- Generator: Adobe Illustrator 16.0.0, SVG Export Plug-In . SVG Version: 6.00 Build 0)  -->
<!DOCTYPE svg PUBLIC "-//W3C//DTD SVG 1.1//EN" "http://www.w3.org/Graphics/SVG/1.1/DTD/svg11.dtd">
<svg version="1.1" id="Layer_1" xmlns="http://www.w3.org/2000/svg" xmlns:xlink="http://www.w3.org/1999/xlink" x="0px" y="0px"
	 width="35px" height="30px" viewBox="0 0 35 30" enable-background="new 0 0 35 30" xml:space="preserve">
<g>
	<g>
		<path fill="#177EA4" d="M2.138,14.834c0,0,0.17,0.591,0.638,1.396c0.471,0.793,1.235,1.83,2.486,2.523
			c0.31,0.174,0.669,0.307,1.052,0.377c0.385,0.076,0.821,0.027,1.185-0.086c0.369-0.137,0.729-0.342,0.97-0.639
			c0.245-0.287,0.416-0.609,0.512-0.922c0.384-1.266,0.187-2.348,0.101-3.078c-0.083-0.742-0.391-1.646-0.886-2.479
			c-0.498-0.835-1.19-1.65-2.163-2.111C5.803,9.684,5.521,9.634,5.264,9.562C4.989,9.544,4.707,9.495,4.441,9.557
			C4.172,9.603,3.914,9.661,3.704,9.779c-0.226,0.102-0.422,0.213-0.563,0.342c-0.15,0.124-0.301,0.238-0.4,0.346
			c-0.094,0.11-0.176,0.206-0.242,0.284c-0.13,0.162-0.204,0.249-0.204,0.249c-0.233,0.479,0.075,1.021,0.638,1.205
			c0.567,0.187,1.129,0.107,1.25-0.159c0.024,0.039,0.219-0.779,0.893-0.842c0.369-0.064,0.979,0.185,1.491,0.615
			c0.521,0.43,0.967,1.027,1.232,1.63c0.148,0.311,0.253,0.653,0.311,1.151c0.059,0.494,0.077,1.063-0.007,1.615
			c-0.073,0.549-0.284,1.092-0.574,1.314c-0.142,0.115-0.289,0.188-0.495,0.197c-0.184,0.014-0.343,0-0.559-0.104
			c-0.412-0.174-0.822-0.559-1.133-0.941c-0.317-0.389-0.549-0.803-0.715-1.158c-0.322-0.724-0.393-1.203-0.393-1.205
			c-0.086-0.314-0.579-0.527-1.182-0.479C2.466,13.89,2.011,14.35,2.138,14.834z"/>
	</g>
	<g>
		<path fill="#177EA4" d="M7.75,7.459c0,0,0.04,0.149,0.139,0.404C7.986,8.12,8.138,8.485,8.371,8.908
			c0.465,0.834,1.261,1.959,2.602,2.631c0.657,0.326,1.504,0.488,2.281,0.264c0.391-0.115,0.752-0.332,1.028-0.61
			c0.259-0.288,0.459-0.604,0.573-0.926c0.251-0.639,0.294-1.253,0.311-1.792c0.009-0.539-0.027-1.011-0.071-1.392
			c-0.079-0.778-0.372-1.716-0.871-2.589c-0.498-0.877-1.214-1.72-2.187-2.227c-0.229-0.143-0.517-0.2-0.772-0.29
			c-0.28-0.024-0.556-0.101-0.83-0.05C10.159,1.955,9.896,1.994,9.672,2.1C9.438,2.185,9.225,2.28,9.07,2.404
			c-0.163,0.114-0.325,0.22-0.44,0.322C8.525,2.835,8.435,2.928,8.36,3.003C8.213,3.16,8.133,3.248,8.133,3.248
			C7.854,3.726,8.12,4.302,8.67,4.522C9.225,4.744,9.795,4.69,9.94,4.427c0.027,0.044,0.269-0.789,1.051-0.816
			c0.416-0.035,1.048,0.235,1.575,0.707c0.535,0.462,0.986,1.096,1.25,1.729C13.878,6.207,13.96,6.389,14,6.583
			c0.062,0.192,0.099,0.408,0.114,0.664c0.041,0.513,0.045,1.107-0.069,1.679c-0.101,0.571-0.343,1.123-0.666,1.351
			c-0.153,0.126-0.331,0.18-0.551,0.195c-0.214,0.028-0.44-0.021-0.667-0.108c-0.457-0.163-0.877-0.536-1.2-0.922
			c-0.327-0.393-0.557-0.819-0.72-1.191C9.92,7.498,9.854,6.975,9.854,6.975c-0.085-0.344-0.59-0.584-1.19-0.521
			C8.079,6.513,7.633,6.968,7.75,7.459z"/>
	</g>
	<g>
		<path fill="#177EA4" d="M18.176,3.785c0,0-0.124,0.625-0.096,1.58c0.039,0.949,0.216,2.251,0.96,3.514
			c0.196,0.309,0.423,0.618,0.733,0.877c0.288,0.279,0.691,0.459,1.062,0.572c0.396,0.094,0.819,0.106,1.201-0.004
			c0.374-0.118,0.707-0.299,0.964-0.525c0.532-0.441,0.86-0.965,1.131-1.429c0.265-0.472,0.453-0.906,0.596-1.262
			c0.296-0.726,0.481-1.688,0.461-2.695c-0.017-1.007-0.231-2.084-0.813-3.002c-0.124-0.236-0.338-0.431-0.513-0.637
			c-0.216-0.171-0.43-0.36-0.677-0.472c-0.49-0.249-1.025-0.324-1.429-0.294c-0.202,0.017-0.393,0.034-0.554,0.058
			c-0.146,0.043-0.272,0.08-0.375,0.11c-0.207,0.066-0.321,0.102-0.321,0.102c-0.486,0.282-0.53,0.92-0.158,1.377
			c0.379,0.464,0.902,0.693,1.151,0.539c-0.004,0.014,0.151-0.104,0.391-0.207c0.248-0.106,0.521-0.147,0.899,0.045
			c0.383,0.193,0.796,0.755,1.03,1.425c0.245,0.669,0.338,1.444,0.271,2.132c-0.024,0.169-0.033,0.371-0.093,0.562
			c-0.039,0.198-0.103,0.408-0.212,0.64c-0.207,0.47-0.485,0.995-0.854,1.445c-0.36,0.452-0.836,0.816-1.213,0.845
			c-0.188,0.029-0.364-0.008-0.564-0.113C21.046,8.925,20.98,8.851,20.898,8.8c-0.072-0.089-0.156-0.152-0.222-0.261
			c-0.287-0.391-0.466-0.954-0.555-1.474c-0.09-0.525-0.104-1.027-0.08-1.442c0.062-0.835,0.226-1.312,0.226-1.312
			c0.077-0.332-0.256-0.757-0.809-1.003C18.924,3.067,18.298,3.278,18.176,3.785z"/>
	</g>
	<g>
		<path fill="#177EA4" d="M30.554,11.506c-0.021-0.008,0.205-0.23,0.301-0.727c0.105-0.475-0.005-1.289-0.707-1.854
			c-0.333-0.295-0.8-0.48-1.238-0.523c-0.451-0.063-0.998,0.069-1.41,0.375c-0.221,0.146-0.366,0.341-0.52,0.536
			c-0.109,0.176-0.181,0.336-0.275,0.508c-0.194,0.331-0.29,0.716-0.417,1.086c-0.202,0.761-0.254,1.589-0.108,2.39
			c0.12,0.809,0.58,1.572,1.195,2.067c0.325,0.235,0.709,0.392,1.089,0.425c0.384,0.025,0.729-0.057,1.032-0.164
			c0.593-0.249,1.014-0.596,1.339-0.882c0.651-0.573,1.339-1.396,1.835-2.415c0.473-1.018,0.787-2.189,0.697-3.352
			c-0.024-0.579-0.216-1.164-0.513-1.67c-0.319-0.505-0.812-0.891-1.266-1.063c-0.228-0.117-0.432-0.136-0.616-0.176
			c-0.185-0.037-0.349-0.068-0.465-0.06c-0.246,0.001-0.382,0.002-0.382,0.002c-0.657,0.097-0.913,0.742-0.696,1.279
			c0.224,0.566,0.695,0.896,0.983,0.861c-0.013,0.014,0.202-0.078,0.442-0.059c0.235,0.02,0.52,0.069,0.799,0.544
			c0.257,0.481,0.37,1.276,0.267,2.08c-0.092,0.81-0.403,1.618-0.834,2.259c-0.22,0.324-0.539,0.717-0.957,1.074
			c-0.407,0.352-0.96,0.657-1.396,0.649c-0.213-0.005-0.386-0.063-0.57-0.222c-0.183-0.161-0.339-0.396-0.45-0.654
			c-0.221-0.529-0.246-1.213-0.092-1.844c0.146-0.624,0.461-1.227,0.766-1.623c0.09-0.107,0.132-0.082,0.183-0.088
			c0.04-0.003,0.17,0.04,0.149,0.046c0.016,0.065-0.041,0.046-0.031,0.046c0.122-0.073,0.005,0.552,0.256,1.089
			c0.124,0.271,0.333,0.466,0.617,0.526C29.804,12.074,30.278,11.889,30.554,11.506z"/>
	</g>
	<g>
		<path fill="#177EA4" d="M12.743,27.238c0,0-0.467,0.309-1.272,0.637c-0.401,0.158-0.886,0.322-1.403,0.404
			c-0.515,0.086-1.073,0.086-1.478-0.107l-0.045-0.027c-0.709-0.316-1.411-0.99-1.758-1.689c-0.092-0.178-0.172-0.35-0.212-0.523
			C6.507,25.756,6.5,25.588,6.49,25.426c-0.017-0.326,0.05-0.658,0.093-0.908c0.136-0.609,0.499-1.301,1.054-1.844
			c0.55-0.557,1.265-0.961,1.958-1.291c0.692-0.334,1.361-0.615,1.862-0.906c0.248-0.141,0.455-0.279,0.596-0.375
			c0.141-0.109,0.217-0.172,0.217-0.172c0.17-0.16,0.219-0.428,0.149-0.668c-0.067-0.24-0.25-0.447-0.502-0.604
			c-0.254-0.158-0.525-0.244-0.738-0.285c-0.212-0.039-0.363-0.031-0.467,0.064c0,0-0.082,0.133-0.312,0.361
			c-0.223,0.225-0.597,0.539-1.101,0.908c-0.495,0.373-1.103,0.809-1.689,1.352c-0.589,0.539-1.132,1.211-1.499,1.92
			c-0.087,0.197-0.195,0.426-0.296,0.678c-0.073,0.258-0.179,0.537-0.237,0.834c-0.026,0.15-0.053,0.303-0.08,0.459l-0.04,0.236
			l-0.005,0.283c-0.021,0.398,0.069,0.762,0.165,1.115c0.458,1.385,1.413,2.363,2.215,2.873c-0.05-0.029-0.052-0.029-0.076-0.043
			c0.541,0.361,1.078,0.486,1.53,0.543c0.458,0.053,0.87,0.055,1.232,0.02c0.731-0.059,1.305-0.193,1.762-0.314
			c0.456-0.125,0.793-0.244,1.018-0.33c0.224-0.086,0.336-0.131,0.336-0.131c0.391-0.176,0.461-0.777,0.162-1.287
			C13.495,27.398,13.036,27.104,12.743,27.238z"/>
	</g>
	<g>
		<path fill="#177EA4" d="M18.193,25.537c0,0,0.157-0.016,0.449-0.076c0.288-0.086,0.736-0.283,1.109-0.729
			c0.341-0.445,0.563-1.068,0.516-1.742c-0.034-0.666-0.381-1.412-1.008-1.91c-0.627-0.506-1.438-0.691-2.194-0.691
			c-0.372,0.049-0.728,0.039-1.141,0.168c-0.398,0.088-0.819,0.297-1.187,0.58c-0.758,0.598-1.104,1.568-1.138,2.404
			c-0.038,0.855,0.126,1.682,0.449,2.453c0.644,1.596,2.127,2.744,3.64,3.174c1.516,0.48,3.034,0.443,4.363,0.277
			c1.335-0.195,2.503-0.568,3.418-1.021c0.928-0.443,1.541-1.002,1.917-1.367c0.365-0.369,0.959-0.977,1.433-1.932
			c0.485-0.934,0.83-2.268,0.568-3.711c-0.074-0.357-0.158-0.723-0.3-1.072c-0.059-0.18-0.131-0.359-0.245-0.549
			c-0.088-0.191-0.223-0.357-0.362-0.525c-0.57-0.672-1.393-0.996-2.146-1.256c-0.757-0.256-1.543-0.422-2.114-0.734
			c-0.293-0.148-0.452-0.342-0.512-0.523l-0.033-0.066l-0.046-0.154l-0.094-0.311c-0.063-0.207-0.115-0.414-0.221-0.609
			c-0.325-0.82-0.887-1.51-1.492-2.113c-0.336-0.264-0.646-0.562-1.027-0.75c-0.185-0.1-0.359-0.22-0.551-0.301
			c-0.194-0.074-0.387-0.148-0.579-0.223c-1.557-0.55-3.168-0.369-4.364,0.139c-1.206,0.515-2.023,1.271-2.503,1.855
			c-0.262,0.277-0.385,0.556-0.506,0.719c-0.108,0.173-0.166,0.266-0.166,0.266c-0.306,0.652-0.004,1.336,0.566,1.471
			c0.586,0.145,1.171-0.086,1.354-0.49c0,0,0.033-0.055,0.095-0.16c0.067-0.104,0.136-0.273,0.273-0.46
			c0.293-0.349,0.711-0.907,1.453-1.276c0.711-0.389,1.693-0.635,2.745-0.479c1.043,0.146,2.13,0.736,2.839,1.717
			c0.198,0.232,0.331,0.502,0.475,0.77c0.083,0.127,0.117,0.287,0.174,0.434l0.079,0.223c0.029,0.074,0.041,0.121,0.113,0.293
			c0.214,0.609,0.698,0.992,1.108,1.225c0.429,0.244,0.818,0.348,1.193,0.465c0.736,0.195,1.4,0.33,1.956,0.543
			c0.563,0.203,0.972,0.482,1.209,0.85c0.116,0.16,0.223,0.424,0.324,0.674c0.079,0.25,0.17,0.496,0.206,0.738
			c0.112,0.482,0.096,0.951,0.068,1.371c-0.099,0.842-0.391,1.494-0.622,1.908c-0.229,0.414-0.667,1.037-1.386,1.645
			c-0.71,0.607-1.754,1.084-3.038,1.387c-1.273,0.279-2.741,0.389-4.15,0.113c-0.695-0.146-1.379-0.367-1.962-0.723
			c-0.577-0.357-1.041-0.832-1.384-1.377c-0.643-1.072-0.741-2.721-0.198-3.309c0.238-0.297,0.618-0.43,1.126-0.457
			c0.521-0.063,0.917,0.059,1.134,0.211c0.451,0.289,0.336,0.822,0.262,0.859c-0.019,0.014-0.022,0.01-0.026,0.018
			c-0.012-0.016-0.005-0.002-0.012,0.002c-0.029-0.018-0.039-0.006-0.041-0.006c-0.083,0.029-0.655,0.301-0.949,0.826
			c-0.139,0.26-0.145,0.553,0.021,0.83C17.274,25.318,17.674,25.557,18.193,25.537z"/>
	</g>
</g>
</svg>
