<?xml version="1.0" encoding="utf-8"?>
<!-- Generator: Adobe Illustrator 19.2.0, SVG Export Plug-In . SVG Version: 6.00 Build 0)  -->
<svg version="1.1" id="Layer_1" xmlns="http://www.w3.org/2000/svg" xmlns:xlink="http://www.w3.org/1999/xlink" x="0px" y="0px"
	 viewBox="0 0 51.2 18.8" style="enable-background:new 0 0 51.2 18.8;" xml:space="preserve">
<style type="text/css">
	.st0{fill:#FFFFFF;}
	.st1{fill:#187EA5;}
	.st2{fill:#177EA4;}
</style>
<rect x="69.8" class="st0" width="51.2" height="26"/>
<g>
	<path class="st1" d="M74.2,7.7c-1.2-0.2-1.8-0.9-1.9-0.9S72.2,7,72.1,7.1l-0.3,1.5c0,0.3-0.2,1.4,0,1.7s0.7,0.5,1.1,0.6v0.2v0.2
		l-0.1,0.1c-0.8-0.2-1.3-0.3-2.1-0.4c-0.6-0.1-1-0.2-1.6-0.3L69,10.5l0.1-0.3l0.1-0.1c0.2,0,0.7,0,1-0.2s0.6-1.1,0.7-1.9L72,2.3
		c0.1-0.5,0.1-0.9-0.2-1.3c-0.1-0.1-0.4-0.2-0.7-0.3H71l0.1-0.3l0.1-0.1l2.1,0.3v0.1l-0.2,1l0.2-0.2c0.6-0.4,1.5-0.7,2.6-0.5
		c2,0.4,2.8,1.9,2.3,3.8C77.9,6.5,76.5,8.1,74.2,7.7z M75.5,1.4c-1.8-0.3-2.5,1.1-2.8,2.7l-0.1,0.5c-0.3,2.1,0.9,2.5,1.4,2.6
		c1.8,0.4,2.7-1.2,3-2.8C77.2,3.1,77.1,1.6,75.5,1.4z"/>
	<path class="st1" d="M81.6,9.1c-2.1-0.4-3.1-1.6-2.6-3.8c0.4-1.8,1.6-3.3,4-2.9c2.2,0.4,3,1.8,2.6,3.7C85.1,8.3,83.7,9.5,81.6,9.1z
		 M82.9,2.9c-1.6-0.3-2.5,1.3-2.7,2.7c-0.4,1.8,0.3,2.9,1.6,3.2C83.1,9,84,7.7,84.4,6C84.7,4.6,84.6,3.2,82.9,2.9z"/>
	<path class="st1" d="M91.9,6.1c-0.3-0.1-0.5-0.2-0.4-0.6c0.1-0.3,0-0.9-0.7-1c-1.1-0.2-1.8,0.7-2.2,2.3l-0.3,1.4
		c-0.1,0.5-0.2,1.2,0,1.4C88.6,9.9,89,10,89.1,10l0.1,0.1v0.2L89,10.4c-0.7-0.2-1-0.2-1.7-0.4c-0.6-0.1-1-0.2-1.5-0.3l-0.1-0.1V9.4
		l0.1-0.1c0.2-0.1,0.7,0.1,1-0.2c0.3-0.2,0.5-0.8,0.6-1.4l0.4-2.1c0-0.1,0.2-0.9,0-1.3C87.6,4,87.2,3.9,87,3.8V3.7V3.5V3.4
		c0.5,0.1,0.7,0.1,1.2,0.2c0.4,0,0.6,0.1,1,0.1l0.1,0.1l-0.2,0.9h0.1c0.4-0.5,1.4-0.9,2.3-0.7c0.9,0.2,1.4,0.7,1.3,1.4
		C92.7,5.9,92.3,6.2,91.9,6.1z"/>
	<path class="st1" d="M100.4,4.2c-0.9-0.3,0.2-1.3-1.4-1.7c-1.4-0.3-2.4,1.7-2.4,2.6c0,0.2,0.2,0.2,0.4,0.3l1.1,0.2l0.1,0.1V6h-0.1
		L97,5.9c-0.2,0-0.4,0-0.5,0.1s-0.1,0.2-0.2,0.3l-0.6,3.2c0,0.1-0.2,0.9,0,1.4c0.2,0.4,0.7,0.5,0.9,0.6v0.1v0.2l-0.1,0.1
		c-0.7-0.2-1.2-0.3-1.9-0.4c-0.7-0.1-1.1-0.2-1.8-0.3L92.7,11v-0.2l0.1-0.1c0.3,0,0.7,0,0.9-0.1c0.5-0.3,0.6-0.8,0.7-1.4L95.2,6
		c0-0.1,0-0.2-0.1-0.3c-0.1-0.1-0.3-0.3-0.6-0.3l-0.7-0.2l-0.1-0.1V4.9h0.1L95,5c0.1,0,0.2,0.1,0.3-0.1c0.2-0.2,0.3-0.8,0.8-1.4
		c0.9-1.3,2.1-1.6,3.4-1.3c0.9,0.2,1.7,0.5,1.6,1.4C101.2,3.9,100.7,4.3,100.4,4.2z"/>
	<path class="st1" d="M100.6,12.8c-2.1-0.4-3.1-1.6-2.7-3.8c0.4-1.8,1.6-3.3,4-2.9c2.2,0.4,3,1.8,2.6,3.7
		C104.1,12,102.6,13.3,100.6,12.8z M101.8,6.6c-1.6-0.3-2.5,1.3-2.7,2.7c-0.4,1.8,0.3,2.9,1.6,3.2c1.4,0.3,2.3-1,2.7-2.8
		C103.6,8.4,103.5,6.9,101.8,6.6z"/>
	<path class="st1" d="M108.3,14.2c-0.7-0.2-1-0.2-1.7-0.4c-0.7-0.1-1-0.2-1.7-0.3l-0.1-0.1v-0.2h0.1c0.4,0,0.5,0,0.7-0.1
		c0.4-0.2,0.7-0.9,0.8-1.6l1-5.3c0.1-0.6,0.2-1.2,0.1-1.6c-0.1-0.3-0.5-0.4-0.7-0.5L106.6,4V3.9V3.7l0.2-0.1c0.4,0,0.8,0.1,1.3,0.1
		c0.4,0,1,0,1.1,0l0,0l-0.4,1.9l-1.2,6c-0.1,0.6-0.3,1.2-0.1,1.6c0.1,0.2,0.4,0.4,0.9,0.6v0.1L108.3,14.2L108.3,14.2z"/>
	<path class="st1" d="M112.7,15.1c-0.3-0.1-1-0.3-1.7-0.4c-0.6-0.1-1-0.2-1.6-0.3l-0.1-0.1l0.1-0.3l0.1-0.1c0.3,0,0.5,0.1,0.9-0.1
		c0.3-0.1,0.5-0.6,0.6-1.5l0.5-2.3c0-0.1,0.1-0.8-0.1-1.1s-0.5-0.4-1-0.5l-0.1-0.1V8.1l0.2-0.1l1,0.2c0.1,0,0.5,0.1,0.9,0.1
		c0.2,0,0.4,0,0.6,0l0.1,0.1c-0.1,0.3-0.2,0.5-0.3,0.9c-0.1,0.5-0.2,0.7-0.3,1.2l-0.4,1.9c-0.1,0.7-0.3,1.5-0.1,1.8
		c0.1,0.2,0.4,0.4,0.8,0.5v0.1V15L112.7,15.1z M112.7,6.7c-0.4-0.1-0.7-0.4-0.7-0.9c0.1-0.4,0.5-0.7,1-0.7c0.6,0.1,0.6,0.4,0.6,0.8
		C113.6,6.5,113.1,6.8,112.7,6.7z"/>
	<path class="st1" d="M116.3,15.9c-2.1-0.4-3.1-1.6-2.7-3.8c0.4-1.8,1.6-3.3,4-2.9c2.2,0.4,3,1.8,2.6,3.7
		C119.7,15.1,118.3,16.3,116.3,15.9z M117.5,9.7c-1.6-0.3-2.5,1.3-2.7,2.7c-0.4,1.8,0.3,2.9,1.6,3.2c1.4,0.3,2.3-1,2.7-2.8
		C119.3,11.5,119.2,10,117.5,9.7z"/>
	<g>
		<g>
			<g>
				<path class="st1" d="M95.9,22.1c0,0-0.6,0.2-1.5,0.6c-0.5,0.2-1,0.4-1.6,0.7c-0.6,0.3-1.2,0.6-1.7,1c-0.2,0.1-0.3,0.2-0.4,0.3
					c0-0.1,0-0.3,0-0.4v-0.2c0-0.1,0-0.2,0-0.4c0-0.5-0.1-0.9-0.2-1.2c-0.2-0.7-0.4-1-0.4-1c-0.2-0.4-0.7-0.4-1-0.2
					c-0.3,0.2-0.4,0.7-0.2,0.9c0,0,0.2,0.2,0.5,0.6c0.3,0.5,0.5,0.9,0.8,3.2c0.1-0.1,0.3-0.3,0.5-0.4l0.7-0.5l0.3-0.2l0.2-0.1
					c0.3-0.2,0.6-0.3,0.9-0.4c0.6-0.2,1.2-0.4,1.7-0.5c1-0.2,1.8-0.3,1.8-0.3c0.4-0.1,0.6-0.5,0.5-0.8C96.6,22.2,96.3,22,95.9,22.1z
					"/>
			</g>
		</g>
	</g>
	<g>
		<g>
			<g>
				<path class="st1" d="M92.6,22.5c0,0,0.1-0.2,0.3-0.6c0.2-0.3,0.5-0.8,1-1.3c1-1,2.9-1.7,5-1.9c1.1-0.1,2.2-0.1,3.2,0
					c1.1,0.1,2.2,0.1,3.2-0.1c0.5-0.1,1-0.3,1.3-0.7c0.1-0.2,0.2-0.5,0-0.7c-0.1-0.2-0.3-0.4-0.5-0.5c-0.7-0.4-1.3-0.5-1.6-0.6
					c-1.5-0.3-6.4-1.1-10.9-2c-2.2-0.4-4.4-0.9-5.9-1.3c-1.6-0.4-2.6-0.7-2.6-0.7c-0.4-0.1-0.8,0.1-0.9,0.5s0.2,0.7,0.6,0.9
					c0,0,0.9,0.2,2.4,0.5s3.4,0.7,5.5,1c4.2,0.6,8.7,1.2,10.3,1.5c0.4,0.1,1,0.2,1.7,0.3c0.3,0.1,0.7,0.2,1,0.4
					c0.1,0.1,0.2,0.1,0.2,0.2s0,0.1-0.1,0.2c0,0-0.1,0.1-0.2,0.1l-0.3,0.1c-0.1,0.1-0.3,0.2-0.6,0.2c-0.5,0.1-1.1,0.1-1.6,0
					c-0.6-0.1-1.2-0.1-1.7-0.2c-0.6,0-1.2-0.1-1.8-0.1c-2.4,0-4.8,0.6-6.3,1.8c-0.7,0.6-1.2,1.2-1.5,1.6s-0.4,0.7-0.4,0.7
					c-0.2,0.4,0,0.9,0.3,1C92,23,92.4,22.8,92.6,22.5z"/>
			</g>
		</g>
	</g>
</g>
<g>
	<text transform="matrix(1 0 0 1 8.583069e-05 -10.026)" class="st2" style="font-family:'ZapfInterLight'; font-size:11.7px;">portfolio</text>
</g>
<g>
	<g>
		<path class="st2" d="M4.8,12.5c-1.1,0-1.7-0.4-1.8-0.5c-0.1,0-0.1,0.2-0.1,0.3l0,1.5c0,0.3,0,1.2,0.2,1.5c0.2,0.2,0.7,0.4,1,0.4
			l0,0.1v0.1L4.1,16c-0.7,0-1.2,0-1.9,0c-0.5,0-0.9,0-1.4,0l-0.1-0.1v-0.2l0-0.1c0.2,0,0.6-0.1,0.8-0.4c0.2-0.3,0.3-1.1,0.3-1.8V8.2
			c0-0.4-0.1-0.8-0.4-1.1C1.4,7,1.1,7,0.9,7L0.8,6.9V6.7l0.1-0.1l1.9-0.1l0,0.1v1L3,7.3c0.4-0.5,1.2-0.9,2.1-0.9
			c1.9,0,2.8,1.2,2.7,3C7.8,10.9,6.9,12.5,4.8,12.5z M4.8,6.8c-1.6,0-1.9,1.4-1.9,2.8l0,0.5c0,1.9,1.2,2,1.7,2c1.6,0,2.1-1.5,2.1-3
			C6.6,8,6.3,6.7,4.8,6.8z"/>
		<path class="st2" d="M11.6,12.5c-1.9,0-3-0.9-3-2.9c0-1.6,0.8-3.2,3-3.2c2,0,2.9,1,2.9,2.8C14.5,11.2,13.5,12.5,11.6,12.5z
			 M11.6,6.8c-1.4,0-1.9,1.5-1.9,2.9c0,1.7,0.7,2.5,1.9,2.5c1.3,0,1.9-1.3,1.9-2.9C13.5,8.1,13.1,6.8,11.6,6.8z"/>
		<path class="st2" d="M20,8.1c-0.2,0-0.4-0.1-0.4-0.4c0-0.3-0.2-0.8-0.8-0.8c-1,0-1.5,0.9-1.5,2.4v1.3c0,0.5,0,1.1,0.3,1.2
			c0.2,0.2,0.6,0.2,0.7,0.2l0.1,0.1v0.2l-0.1,0.1c-0.6,0-0.9,0-1.6,0c-0.6,0-0.9,0-1.4,0l-0.1-0.1v-0.2l0.1-0.1
			c0.2-0.1,0.6-0.1,0.9-0.3c0.2-0.2,0.3-0.8,0.3-1.3V8.4c0-0.1,0-0.8-0.3-1.1C15.9,7,15.5,7,15.3,7l-0.1-0.1V6.7l0.1-0.1
			c0.4,0,0.7,0,1.1,0c0.3,0,0.5,0,0.9-0.1l0.1,0.1v0.8h0.1c0.3-0.5,1.1-1,1.9-1c0.8,0,1.3,0.4,1.4,1C20.7,7.8,20.4,8.1,20,8.1z"/>
		<path class="st2" d="M25.2,6.9L24.3,7c-0.2,0-0.5,0.1-0.5,0.2c-0.1,0.2-0.1,0.4-0.1,0.6v1.8c0,0.8,0,1.9,0.3,2.2
			c0.2,0.3,0.7,0.3,0.8,0.3h0.4l0.1,0v0.2l-0.1,0.1l-0.8,0.1c-0.2,0-0.4,0.1-0.7,0.1c-0.7,0-1.1-0.3-1.1-0.9V7.3c0-0.1,0-0.1,0-0.2
			c-0.1-0.3-0.9-0.2-1.1-0.3l-0.1-0.1V6.6l0.1-0.1l0.7,0c0.2,0,0.2,0,0.4-0.1C22.8,6.3,22.9,6,23,5.7l0.4-1.4l0.1-0.1h0.2l0.1,0.1
			l-0.1,1.8c0,0.1,0,0.2,0.1,0.3c0.1,0.1,0.3,0.1,0.8,0.1h0.7l0.1,0.1v0.2L25.2,6.9z"/>
		<path class="st2" d="M31.8,4.9c-0.8-0.1-0.1-1.2-1.5-1.2c-1.3,0-1.8,1.9-1.6,2.7c0,0.2,0.2,0.2,0.4,0.2l1,0l0.1,0.1v0.3l0,0
			l-1,0.1c-0.2,0-0.4,0.1-0.4,0.2c-0.1,0.1-0.1,0.2-0.1,0.3v2.9c0,0.1,0,0.8,0.3,1.2c0.2,0.3,0.7,0.3,0.9,0.4l0.1,0.1v0.2l-0.1,0.1
			c-0.7,0-1.1,0-1.8,0c-0.6,0-1,0-1.6,0l-0.1-0.1v-0.2l0.1-0.1c0.2,0,0.6-0.1,0.8-0.2c0.4-0.3,0.4-0.8,0.4-1.4v-3
			c0-0.1-0.1-0.2-0.2-0.3C27.3,7.1,27.1,7,26.8,7l-0.6,0l-0.1-0.1V6.6l0.1-0.1h1c0.1,0,0.2,0,0.3-0.1c0.1-0.2,0.1-0.7,0.4-1.4
			c0.6-1.3,1.5-1.8,2.8-1.8c0.8,0,1.6,0.2,1.7,0.9C32.5,4.6,32.2,5,31.8,4.9z"/>
		<path class="st2" d="M33.5,12.5c-1.9,0-3-0.9-3-2.9c0-1.6,0.8-3.2,3-3.2c2,0,2.9,1,2.9,2.8C36.4,11.2,35.4,12.5,33.5,12.5z
			 M33.5,6.8c-1.4,0-1.9,1.5-1.9,2.9c0,1.7,0.7,2.5,1.9,2.5c1.3,0,1.9-1.3,1.9-2.9C35.4,8.1,35,6.8,33.5,6.8z"/>
		<path class="st2" d="M40.5,12.4c-0.6,0-1,0-1.6,0s-0.9,0-1.6,0l-0.1-0.1v-0.2l0.1,0c0.4-0.1,0.4-0.1,0.6-0.2
			c0.4-0.2,0.4-0.9,0.4-1.6V5.4c0-0.5,0-1.1-0.2-1.4c-0.1-0.3-0.5-0.3-0.7-0.3l-0.3,0l-0.1-0.1V3.4l0.1-0.1c0.4,0,0.7-0.1,1.1-0.1
			c0.4-0.1,0.9-0.2,1-0.2l0,0l0,1.8v5.5c0,0.5,0,1.1,0.2,1.4c0.1,0.2,0.5,0.3,0.9,0.3l0.1,0.1L40.5,12.4L40.5,12.4z"/>
		<path class="st2" d="M44.5,12.4c-0.2,0-0.9,0-1.5-0.1c-0.6,0-0.9,0-1.5,0l-0.1-0.1v-0.2l0.1-0.1c0.3-0.1,0.5,0,0.8-0.3
			c0.2-0.2,0.3-0.6,0.3-1.5V8.2c0,0,0-0.7-0.3-0.9C42,7,41.7,7,41.3,6.9l-0.1-0.1V6.7l0.1-0.1h0.9c0.1,0,0.5,0,0.8-0.1
			c0.2,0,0.4,0,0.6-0.1l0.1,0.1c0,0.3-0.1,0.5-0.1,0.8c0,0.4,0,0.7,0,1.1v1.7c0,0.6,0,1.4,0.3,1.6c0.1,0.1,0.4,0.3,0.8,0.3l0,0.1
			L44.5,12.4L44.5,12.4z M43,5c-0.4,0-0.7-0.2-0.7-0.7c0-0.4,0.4-0.7,0.7-0.7c0.5,0,0.6,0.3,0.7,0.6C43.8,4.7,43.4,5,43,5z"/>
		<path class="st2" d="M47.8,12.5c-1.9,0-3-0.9-3-2.9c0-1.6,0.8-3.2,3-3.2c2,0,2.9,1,2.9,2.8C50.7,11.2,49.6,12.5,47.8,12.5z
			 M47.8,6.8c-1.4,0-1.9,1.5-1.9,2.9c0,1.7,0.7,2.5,1.9,2.5c1.3,0,1.9-1.3,1.9-2.9C49.6,8.1,49.3,6.8,47.8,6.8z"/>
	</g>
</g>
</svg>
