<?xml version="1.0" encoding="utf-8"?>
<!-- Generator: Adobe Illustrator 19.2.0, SVG Export Plug-In . SVG Version: 6.00 Build 0)  -->
<svg version="1.1" id="Layer_1" xmlns="http://www.w3.org/2000/svg" xmlns:xlink="http://www.w3.org/1999/xlink" x="0px" y="0px"
	 viewBox="0 0 51.2 26" style="enable-background:new 0 0 51.2 26;" xml:space="preserve">
<style type="text/css">
	.st0{fill:#187EA5;}
</style>
<g>
	<path class="st0" d="M5.2,7.7C4,7.5,3.4,6.8,3.3,6.8c-0.1,0-0.1,0.2-0.2,0.3L2.8,8.6C2.8,8.9,2.6,10,2.8,10.3
		c0.2,0.3,0.7,0.5,1.1,0.6l0,0.2l0,0.2l-0.1,0.1c-0.8-0.2-1.3-0.3-2.1-0.4c-0.6-0.1-1-0.2-1.6-0.3L0,10.5l0.1-0.3l0.1-0.1
		c0.2,0,0.7,0,1-0.2c0.3-0.2,0.6-1.1,0.7-1.9L3,2.3c0.1-0.5,0.1-0.9-0.2-1.3C2.7,0.9,2.4,0.8,2.1,0.7L2,0.7l0.1-0.3l0.1-0.1l2.1,0.3
		l0,0.1L4.1,1.7l0.2-0.2C4.9,1.1,5.8,0.8,6.9,1c2,0.4,2.8,1.9,2.3,3.8C8.9,6.5,7.5,8.1,5.2,7.7z M6.5,1.4C4.7,1.1,4,2.5,3.7,4.1
		L3.6,4.6C3.3,6.7,4.5,7.1,5,7.2C6.8,7.6,7.7,6,8,4.4C8.2,3.1,8.1,1.6,6.5,1.4z"/>
	<path class="st0" d="M12.6,9.1C10.5,8.7,9.5,7.5,10,5.3c0.4-1.8,1.6-3.3,4-2.9c2.2,0.4,3,1.8,2.6,3.7C16.1,8.3,14.7,9.5,12.6,9.1z
		 M13.9,2.9c-1.6-0.3-2.5,1.3-2.7,2.7c-0.4,1.8,0.3,2.9,1.6,3.2C14.1,9,15,7.7,15.4,6C15.7,4.6,15.6,3.2,13.9,2.9z"/>
	<path class="st0" d="M22.9,6.1c-0.3-0.1-0.5-0.2-0.4-0.6c0.1-0.3,0-0.9-0.7-1c-1.1-0.2-1.8,0.7-2.2,2.3l-0.3,1.4
		c-0.1,0.5-0.2,1.2,0,1.4C19.6,9.9,20,10,20.1,10l0.1,0.1l0,0.2L20,10.4c-0.7-0.2-1-0.2-1.7-0.4c-0.6-0.1-1-0.2-1.5-0.3l-0.1-0.1
		l0-0.2l0.1-0.1c0.2-0.1,0.7,0.1,1-0.2c0.3-0.2,0.5-0.8,0.6-1.4l0.4-2.1c0-0.1,0.2-0.9,0-1.3c-0.2-0.3-0.6-0.4-0.8-0.5l0-0.1L18,3.5
		L18,3.4c0.5,0.1,0.7,0.1,1.2,0.2c0.4,0,0.6,0.1,1,0.1l0.1,0.1l-0.2,0.9l0.1,0c0.4-0.5,1.4-0.9,2.3-0.7c0.9,0.2,1.4,0.7,1.3,1.4
		C23.7,5.9,23.3,6.2,22.9,6.1z"/>
	<path class="st0" d="M31.4,4.2c-0.9-0.3,0.2-1.3-1.4-1.7c-1.4-0.3-2.4,1.7-2.4,2.6c0,0.2,0.2,0.2,0.4,0.3l1.1,0.2l0.1,0.1L29.2,6
		l-0.1,0L28,5.9c-0.2,0-0.4,0-0.5,0.1c-0.1,0.1-0.1,0.2-0.2,0.3l-0.6,3.2c0,0.1-0.2,0.9,0,1.4c0.2,0.4,0.7,0.5,0.9,0.6l0,0.1l0,0.2
		l-0.1,0.1c-0.7-0.2-1.2-0.3-1.9-0.4c-0.7-0.1-1.1-0.2-1.8-0.3L23.7,11l0-0.2l0.1-0.1c0.3,0,0.7,0,0.9-0.1c0.5-0.3,0.6-0.8,0.7-1.4
		L26.2,6c0-0.1,0-0.2-0.1-0.3c-0.1-0.1-0.3-0.3-0.6-0.3l-0.7-0.2l-0.1-0.1l0-0.2l0.1,0L26,5c0.1,0,0.2,0.1,0.3-0.1
		c0.2-0.2,0.3-0.8,0.8-1.4c0.9-1.3,2.1-1.6,3.4-1.3c0.9,0.2,1.7,0.5,1.6,1.4C32.2,3.9,31.7,4.3,31.4,4.2z"/>
	<path class="st0" d="M31.6,12.8c-2.1-0.4-3.1-1.6-2.7-3.8c0.4-1.8,1.6-3.3,4-2.9c2.2,0.4,3,1.8,2.6,3.7
		C35.1,12,33.6,13.3,31.6,12.8z M32.8,6.6c-1.6-0.3-2.5,1.3-2.7,2.7c-0.4,1.8,0.3,2.9,1.6,3.2c1.4,0.3,2.3-1,2.7-2.8
		C34.6,8.4,34.5,6.9,32.8,6.6z"/>
	<path class="st0" d="M39.3,14.2c-0.7-0.2-1-0.2-1.7-0.4c-0.7-0.1-1-0.2-1.7-0.3l-0.1-0.1l0-0.2l0.1,0c0.4,0,0.5,0,0.7-0.1
		c0.4-0.2,0.7-0.9,0.8-1.6l1-5.3c0.1-0.6,0.2-1.2,0.1-1.6c-0.1-0.3-0.5-0.4-0.7-0.5L37.6,4l0-0.1l0-0.2l0.2-0.1
		c0.4,0,0.8,0.1,1.3,0.1c0.4,0,1,0,1.1,0l0,0l-0.4,1.9l-1.2,6c-0.1,0.6-0.3,1.2-0.1,1.6c0.1,0.2,0.4,0.4,0.9,0.6l0,0.1L39.3,14.2
		L39.3,14.2z"/>
	<path class="st0" d="M43.7,15.1c-0.3-0.1-1-0.3-1.7-0.4c-0.6-0.1-1-0.2-1.6-0.3l-0.1-0.1l0.1-0.3l0.1-0.1c0.3,0,0.5,0.1,0.9-0.1
		c0.3-0.1,0.5-0.6,0.6-1.5l0.5-2.3c0-0.1,0.1-0.8-0.1-1.1c-0.2-0.3-0.5-0.4-1-0.5l-0.1-0.1l0-0.2L41.5,8l1,0.2
		c0.1,0,0.5,0.1,0.9,0.1c0.2,0,0.4,0,0.6,0l0.1,0.1c-0.1,0.3-0.2,0.5-0.3,0.9c-0.1,0.5-0.2,0.7-0.3,1.2l-0.4,1.9
		c-0.1,0.7-0.3,1.5-0.1,1.8c0.1,0.2,0.4,0.4,0.8,0.5l0,0.1l0,0.2L43.7,15.1z M43.7,6.7c-0.4-0.1-0.7-0.4-0.7-0.9
		c0.1-0.4,0.5-0.7,1-0.7c0.6,0.1,0.6,0.4,0.6,0.8C44.6,6.5,44.1,6.8,43.7,6.7z"/>
	<path class="st0" d="M47.3,15.9c-2.1-0.4-3.1-1.6-2.7-3.8c0.4-1.8,1.6-3.3,4-2.9c2.2,0.4,3,1.8,2.6,3.7
		C50.7,15.1,49.3,16.3,47.3,15.9z M48.5,9.7c-1.6-0.3-2.5,1.3-2.7,2.7c-0.4,1.8,0.3,2.9,1.6,3.2c1.4,0.3,2.3-1,2.7-2.8
		C50.3,11.5,50.2,10,48.5,9.7z"/>
	<g>
		<g>
			<g>
				<path class="st0" d="M26.9,22.1c0,0-0.6,0.2-1.5,0.6c-0.5,0.2-1,0.4-1.6,0.7c-0.6,0.3-1.2,0.6-1.7,1c-0.2,0.1-0.3,0.2-0.4,0.3
					c0-0.1,0-0.3,0-0.4l0-0.2c0-0.1,0-0.2,0-0.4c0-0.5-0.1-0.9-0.2-1.2c-0.2-0.7-0.4-1-0.4-1c-0.2-0.4-0.7-0.4-1-0.2
					c-0.3,0.2-0.4,0.7-0.2,0.9c0,0,0.2,0.2,0.5,0.6c0.3,0.5,0.5,0.9,0.8,3.2c0.1-0.1,0.3-0.3,0.5-0.4l0.7-0.5l0.3-0.2l0.2-0.1
					c0.3-0.2,0.6-0.3,0.9-0.4c0.6-0.2,1.2-0.4,1.7-0.5c1-0.2,1.8-0.3,1.8-0.3c0.4-0.1,0.6-0.5,0.5-0.8C27.6,22.2,27.3,22,26.9,22.1z
					"/>
			</g>
		</g>
	</g>
	<g>
		<g>
			<g>
				<path class="st0" d="M23.6,22.5c0,0,0.1-0.2,0.3-0.6c0.2-0.3,0.5-0.8,1-1.3c1-1,2.9-1.7,5-1.9c1.1-0.1,2.2-0.1,3.2,0
					c1.1,0.1,2.2,0.1,3.2-0.1c0.5-0.1,1-0.3,1.3-0.7c0.1-0.2,0.2-0.5,0-0.7c-0.1-0.2-0.3-0.4-0.5-0.5c-0.7-0.4-1.3-0.5-1.6-0.6
					c-1.5-0.3-6.4-1.1-10.9-2c-2.2-0.4-4.4-0.9-5.9-1.3c-1.6-0.4-2.6-0.7-2.6-0.7c-0.4-0.1-0.8,0.1-0.9,0.5
					c-0.1,0.4,0.2,0.7,0.6,0.9c0,0,0.9,0.2,2.4,0.5c1.5,0.3,3.4,0.7,5.5,1c4.2,0.6,8.7,1.2,10.3,1.5c0.4,0.1,1,0.2,1.7,0.3
					c0.3,0.1,0.7,0.2,1,0.4c0.1,0.1,0.2,0.1,0.2,0.2c0,0.1,0,0.1-0.1,0.2c0,0-0.1,0.1-0.2,0.1l-0.3,0.1C36.2,17.9,36,18,35.7,18
					c-0.5,0.1-1.1,0.1-1.6,0c-0.6-0.1-1.2-0.1-1.7-0.2c-0.6,0-1.2-0.1-1.8-0.1c-2.4,0-4.8,0.6-6.3,1.8c-0.7,0.6-1.2,1.2-1.5,1.6
					c-0.3,0.4-0.4,0.7-0.4,0.7c-0.2,0.4,0,0.9,0.3,1C23,23,23.4,22.8,23.6,22.5z"/>
			</g>
		</g>
	</g>
</g>
</svg>
